<svg id="svg" version="1.1" xmlns="http://www.w3.org/2000/svg" xmlns:xlink="http://www.w3.org/1999/xlink" width="400" height="600" viewBox="0, 0, 400,600"><g id="svgg"><path id="path0" d="M0.000 300.000 L 0.000 600.000 200.000 600.000 L 400.000 600.000 400.000 300.000 L 400.000 0.000 200.000 0.000 L 0.000 0.000 0.000 300.000 M202.971 1.961 C 226.987 3.862,243.530 11.417,263.342 29.534 L 268.798 34.523 278.247 34.428 C 304.144 34.168,322.147 41.565,329.455 55.469 C 338.538 72.752,325.676 86.107,298.730 87.370 L 293.359 87.622 293.359 92.491 C 293.359 98.025,292.592 103.986,291.193 109.312 C 290.666 111.319,290.234 113.016,290.234 113.084 C 290.234 113.151,290.981 113.648,291.895 114.187 C 300.290 119.146,300.828 135.958,292.989 148.438 C 292.015 149.988,291.854 150.702,291.623 154.492 C 289.943 182.026,268.263 202.010,233.984 207.622 C 231.729 207.991,229.832 208.338,229.771 208.393 C 229.104 208.986,236.783 215.472,241.149 218.004 C 253.253 225.023,261.088 233.120,268.881 246.661 C 272.706 253.309,276.182 258.594,280.796 264.781 C 286.644 272.621,286.689 273.552,281.538 280.178 L 279.790 282.426 281.080 286.861 C 285.438 301.845,287.709 319.443,288.900 347.461 C 289.100 352.168,289.397 354.579,290.102 357.227 C 293.258 369.065,293.598 375.534,291.489 383.654 C 287.518 398.946,275.503 410.603,269.697 404.797 C 269.362 404.462,268.353 404.104,267.454 404.001 C 266.556 403.898,264.531 403.131,262.955 402.297 C 261.379 401.464,259.862 400.781,259.583 400.781 C 259.304 400.781,258.440 400.078,257.663 399.218 C 255.552 396.881,255.599 393.994,257.796 390.985 C 260.171 387.732,260.467 387.070,261.189 383.397 L 261.860 379.979 260.565 374.705 C 259.080 368.658,259.072 365.488,260.527 360.855 L 261.350 358.233 259.332 354.214 C 258.223 352.004,256.940 349.201,256.483 347.985 C 255.718 345.953,255.593 345.818,254.928 346.304 C 254.251 346.799,254.185 347.983,253.879 364.920 C 253.699 374.868,253.359 393.643,253.124 406.641 C 252.888 419.639,252.532 436.162,252.332 443.359 C 252.132 450.557,251.965 459.551,251.961 463.348 L 251.953 470.250 253.076 470.497 C 256.211 471.186,256.868 474.082,256.302 484.726 L 255.903 492.238 257.300 494.068 C 258.471 495.604,259.050 495.996,260.891 496.502 C 263.695 497.273,267.003 499.074,267.773 500.249 C 268.525 501.397,270.513 502.416,274.056 503.469 C 287.308 507.407,296.331 528.120,288.613 536.888 C 279.069 547.731,244.725 547.229,209.961 535.738 C 192.795 530.064,189.200 526.141,192.605 516.797 C 193.322 514.829,194.329 507.682,195.312 497.579 C 195.612 494.502,195.573 493.534,195.106 492.416 C 193.526 488.635,194.506 476.273,196.496 474.879 L 197.372 474.266 197.107 463.207 C 196.437 435.239,194.979 386.973,194.780 386.182 C 194.576 385.373,181.412 436.834,178.554 449.609 C 172.496 476.690,172.680 475.551,174.121 477.057 C 175.809 478.822,175.422 485.508,173.197 492.998 C 172.597 495.020,171.111 496.854,168.791 498.438 C 167.935 499.022,167.933 499.055,167.838 514.258 C 167.728 531.939,167.836 531.409,163.493 535.726 C 151.310 547.837,125.716 555.094,104.059 552.578 C 81.417 549.947,72.300 542.494,76.505 530.054 C 78.880 523.026,81.493 519.845,89.086 514.735 C 91.756 512.938,92.810 511.987,93.085 511.128 C 93.725 509.132,95.181 507.574,97.526 506.381 C 99.329 505.462,99.829 505.000,100.018 504.073 C 100.402 502.197,101.501 500.884,103.317 500.133 C 104.898 499.479,105.079 499.247,105.904 496.824 L 106.791 494.219 105.747 491.738 C 102.026 482.897,104.101 469.141,109.157 469.141 L 110.396 469.141 111.435 462.207 C 112.006 458.394,113.009 451.670,113.665 447.266 C 117.987 418.218,126.976 362.338,127.952 358.447 C 128.187 357.514,128.153 357.498,126.694 357.837 C 122.862 358.726,116.254 357.856,111.920 355.890 C 110.141 355.084,108.670 354.755,106.043 354.577 C 98.530 354.069,93.266 352.322,89.647 349.135 C 88.027 347.709,87.348 347.394,85.057 347.005 C 77.133 345.663,70.128 338.062,68.568 329.113 C 66.077 314.831,70.799 289.521,77.807 279.594 L 78.562 278.525 77.465 277.083 L 76.367 275.642 76.384 267.801 C 76.441 240.880,85.903 221.736,101.997 215.979 C 105.377 214.770,105.457 214.712,105.660 213.328 C 107.194 202.899,113.483 197.092,124.137 196.267 C 133.250 195.560,141.767 200.518,141.793 206.543 C 141.798 207.615,141.112 207.625,148.828 206.442 C 158.545 204.953,157.718 205.269,160.058 202.148 C 162.681 198.652,162.661 198.518,159.278 196.875 C 148.607 191.693,138.480 182.111,133.556 172.538 L 132.390 170.272 130.941 171.413 C 118.254 181.404,99.424 174.832,90.473 157.290 C 85.890 148.308,86.211 136.368,91.194 130.531 L 92.912 128.519 91.362 124.947 C 84.462 109.036,83.185 87.757,88.094 70.450 C 93.337 51.968,104.422 37.165,121.387 25.993 L 126.563 22.584 126.563 20.850 C 126.563 12.676,140.120 6.051,147.122 10.803 C 148.886 12.000,148.877 12.001,153.790 10.009 C 168.794 3.926,188.029 0.779,202.971 1.961 M188.867 5.122 C 168.974 6.983,144.010 15.246,139.282 21.535 C 128.515 35.858,125.021 62.318,130.132 90.820 C 130.555 93.184,131.051 95.267,131.233 95.450 C 131.415 95.633,135.317 93.071,139.903 89.756 C 184.864 57.257,222.449 40.263,259.339 35.755 C 262.006 35.429,264.259 35.090,264.347 35.002 C 265.015 34.334,247.271 19.988,241.953 16.895 C 226.172 7.718,206.872 3.438,188.867 5.122 M137.812 13.254 C 133.635 14.590,130.419 17.062,129.836 19.384 C 129.455 20.901,129.543 20.876,137.052 17.378 C 140.966 15.554,144.337 14.063,144.545 14.063 C 145.720 14.063,144.629 13.283,142.950 12.923 C 140.486 12.395,140.504 12.393,137.812 13.254 M131.179 23.568 C 111.152 35.481,99.644 48.153,93.164 65.430 C 86.400 83.463,86.630 106.843,93.726 122.553 C 95.526 126.538,95.109 126.386,98.828 124.409 C 101.204 123.146,103.088 121.553,108.789 115.986 C 114.938 109.982,121.355 104.172,126.877 99.609 L 128.532 98.242 127.582 93.750 C 121.824 66.515,124.355 40.814,134.500 23.504 C 136.238 20.539,136.271 20.539,131.179 23.568 M272.656 37.742 C 232.009 40.679,196.210 54.791,151.683 85.430 C 143.857 90.816,143.980 90.612,148.487 90.680 C 161.853 90.882,165.547 90.663,173.438 89.198 C 184.884 87.072,191.816 83.722,214.258 69.466 C 242.270 51.672,257.599 45.357,279.102 42.754 C 298.268 40.433,317.144 45.973,325.391 56.340 C 327.648 59.178,327.901 58.526,325.795 55.294 C 317.729 42.914,296.790 35.998,272.656 37.742 M281.836 45.568 C 278.063 46.014,267.723 47.794,267.451 48.043 C 267.274 48.206,267.801 48.464,268.623 48.617 C 277.102 50.189,285.769 64.533,287.199 79.359 L 287.639 83.914 292.447 84.191 C 313.419 85.401,330.827 76.586,327.744 66.316 C 323.578 52.438,302.871 43.080,281.836 45.568 M257.422 50.933 C 251.852 52.683,238.533 58.227,237.535 59.212 C 237.446 59.299,237.413 61.437,237.460 63.963 C 237.601 71.486,236.108 77.880,233.138 82.475 C 232.315 83.749,231.641 84.845,231.641 84.909 C 231.641 84.973,232.563 84.899,233.691 84.744 C 248.783 82.676,262.500 67.132,262.500 52.098 C 262.500 49.161,262.827 49.236,257.422 50.933 M265.495 51.042 C 265.352 51.185,265.234 52.335,265.234 53.597 C 265.234 70.580,250.291 85.744,231.028 88.307 C 225.284 89.071,224.368 88.091,227.674 84.714 C 230.125 82.212,233.019 76.533,233.800 72.696 C 234.543 69.046,234.487 69.019,232.477 72.076 C 227.013 80.386,213.942 88.849,201.041 92.429 C 199.072 92.975,197.200 93.506,196.881 93.609 C 196.485 93.737,196.692 93.985,197.536 94.394 C 200.908 96.027,199.380 97.394,194.559 97.057 C 186.702 96.509,180.694 99.080,177.344 104.423 C 175.268 107.732,174.207 107.151,175.032 103.155 C 176.426 96.398,180.398 93.512,191.246 91.375 C 212.503 87.187,231.610 74.240,233.463 62.768 L 233.704 61.278 230.231 63.388 C 228.321 64.548,222.803 67.958,217.969 70.966 C 188.653 89.206,179.607 92.900,162.446 93.645 L 157.508 93.859 156.811 96.441 C 155.587 100.971,153.135 106.387,149.811 111.903 C 148.901 113.413,147.580 116.406,146.876 118.555 C 143.007 130.358,140.208 135.625,133.712 143.319 C 130.266 147.400,130.395 147.415,128.309 142.697 C 121.845 128.079,113.681 122.548,103.247 125.717 C 89.290 129.957,86.041 145.795,96.104 160.547 C 105.064 173.684,120.685 177.035,130.245 167.871 C 132.697 165.520,132.758 165.529,134.351 168.457 C 147.626 192.857,177.219 206.436,215.625 205.749 C 249.489 205.144,273.912 193.012,284.175 171.700 C 289.627 160.377,290.066 149.202,285.750 131.618 C 283.867 123.950,283.464 118.308,283.961 106.641 C 284.571 92.360,284.496 80.092,283.774 75.951 C 281.773 64.476,274.665 53.304,268.110 51.331 C 266.024 50.703,265.852 50.684,265.495 51.042 M267.402 83.979 C 272.823 86.615,277.187 93.490,275.086 96.085 L 274.332 97.015 272.972 94.894 C 269.256 89.102,263.891 86.891,257.300 88.438 C 252.084 89.662,250.907 88.889,253.889 86.195 C 258.109 82.382,262.603 81.645,267.402 83.979 M287.357 97.363 C 287.214 102.788,286.990 108.633,286.858 110.352 C 286.545 114.439,286.815 114.055,288.239 108.389 C 289.719 102.505,290.625 95.974,290.625 91.198 L 290.625 87.500 289.120 87.500 L 287.616 87.500 287.357 97.363 M137.892 95.263 C 130.938 100.244,117.188 111.836,110.938 117.988 L 107.227 121.641 110.156 121.916 C 118.153 122.668,123.618 127.264,129.325 138.033 L 131.160 141.496 134.156 137.643 C 137.765 133.001,141.129 126.443,143.174 120.061 C 144.092 117.194,146.101 112.600,148.598 107.656 C 152.361 100.205,154.693 94.406,154.146 93.859 C 154.009 93.722,150.955 93.510,147.360 93.387 L 140.823 93.164 137.892 95.263 M266.222 110.070 C 272.999 113.561,275.382 121.210,272.248 129.404 C 270.552 133.839,269.668 133.890,270.756 129.490 C 273.510 118.357,266.370 109.038,257.999 112.840 C 256.427 113.554,252.723 117.269,252.747 118.109 C 252.754 118.354,252.976 118.269,253.242 117.921 C 257.794 111.941,266.595 117.554,265.916 126.005 C 264.823 139.633,249.397 136.234,250.091 122.518 C 250.605 112.372,258.646 106.167,266.222 110.070 M192.236 111.534 C 201.533 114.780,205.493 128.104,199.024 134.374 C 197.350 135.997,197.344 135.911,198.899 132.588 C 205.251 119.015,187.976 106.636,179.785 118.892 C 178.144 121.348,178.174 121.865,179.872 120.374 C 187.815 113.400,197.374 127.328,190.310 135.581 C 184.806 142.011,175.969 136.851,175.470 126.915 C 174.916 115.903,183.140 108.359,192.236 111.534 M288.779 116.499 C 287.338 118.335,286.808 122.360,287.546 125.860 C 288.098 128.476,288.059 128.449,289.253 127.030 C 290.136 125.980,292.327 124.960,294.606 124.537 C 295.221 124.422,295.219 124.275,294.562 122.346 C 293.416 118.978,289.746 115.267,288.779 116.499 M238.348 120.959 C 239.784 122.259,238.815 124.609,236.843 124.609 C 235.055 124.609,234.410 123.306,235.324 121.539 C 236.040 120.154,237.210 119.929,238.348 120.959 M222.187 121.953 C 222.851 122.617,222.769 124.420,222.047 125.019 C 221.253 125.678,219.397 125.065,219.207 124.082 C 218.793 121.929,220.759 120.524,222.187 121.953 M291.141 129.546 C 289.253 131.573,289.182 131.986,290.068 135.804 C 290.405 137.261,290.909 139.952,291.187 141.785 L 291.693 145.117 292.721 142.934 C 297.047 133.751,295.942 124.391,291.141 129.546 M240.822 132.813 C 249.706 137.114,248.897 148.567,239.400 152.915 C 233.177 155.764,221.697 154.048,219.499 149.939 C 218.845 148.718,219.365 148.616,221.587 149.529 C 231.788 153.721,244.141 149.830,244.141 142.424 C 244.141 134.793,234.347 132.476,223.402 137.517 C 218.755 139.657,217.338 139.419,219.824 136.916 C 224.606 132.101,235.111 130.049,240.822 132.813 M162.388 133.631 C 163.332 135.489,160.722 137.228,159.229 135.735 C 158.375 134.882,158.428 133.759,159.366 132.822 C 160.314 131.874,161.681 132.240,162.388 133.631 M110.219 135.872 C 114.816 138.101,121.330 147.266,121.596 151.879 C 121.735 154.283,120.030 153.944,118.750 151.312 C 117.361 148.457,116.901 148.007,115.678 148.308 C 111.946 149.228,110.303 153.744,112.320 157.534 C 113.705 160.135,112.223 161.383,110.250 159.277 C 106.950 155.755,108.454 148.656,112.992 146.336 C 115.587 145.008,115.571 144.885,112.345 141.474 C 107.791 136.659,103.441 136.301,100.348 140.487 C 98.073 143.567,96.612 142.249,98.406 138.734 C 100.315 134.991,105.709 133.684,110.219 135.872 M280.371 137.608 C 280.992 138.089,281.005 139.933,280.391 140.547 C 279.135 141.802,277.344 140.780,277.344 138.808 C 277.344 136.938,278.773 136.372,280.371 137.608 M150.694 137.717 C 152.309 138.848,151.596 141.016,149.609 141.016 C 147.733 141.016,147.011 139.251,148.303 137.824 C 149.093 136.951,149.570 136.930,150.694 137.717 M173.924 143.609 C 174.577 145.041,173.760 146.484,172.296 146.484 C 170.715 146.484,169.850 145.245,170.377 143.734 C 170.984 141.993,173.153 141.916,173.924 143.609 M272.088 145.099 C 273.250 146.262,273.277 146.645,272.266 147.656 C 270.401 149.521,267.834 146.772,269.530 144.728 C 270.226 143.889,270.988 144.000,272.088 145.099 M162.277 145.926 C 163.500 147.149,162.698 149.219,161.002 149.219 C 159.174 149.219,158.455 147.814,159.389 146.068 C 159.878 145.154,161.428 145.078,162.277 145.926 M281.380 150.025 C 282.093 151.043,281.797 152.223,280.638 152.983 C 278.822 154.173,277.382 152.118,278.529 149.974 C 279.063 148.977,280.666 149.006,281.380 150.025 M193.533 150.842 C 195.929 151.934,195.302 153.185,192.095 153.711 L 189.713 154.102 191.701 156.489 C 205.405 172.948,237.931 174.373,256.846 159.342 C 259.945 156.879,260.282 156.127,258.368 155.948 C 255.490 155.678,254.576 154.742,256.020 153.545 C 258.622 151.385,263.947 153.413,265.678 157.223 C 267.338 160.878,266.085 163.022,263.847 160.356 L 262.590 158.859 259.908 161.138 C 248.144 171.135,231.967 175.015,214.843 171.945 C 202.998 169.822,191.202 163.032,187.745 156.346 C 186.901 154.713,186.661 154.739,183.185 156.829 C 179.198 159.227,178.119 158.834,180.061 155.692 C 182.750 151.340,189.384 148.952,193.533 150.842 M213.296 177.318 C 219.625 179.512,224.415 179.692,233.536 178.079 C 238.608 177.181,239.053 177.312,236.998 179.096 C 233.242 182.357,221.951 183.468,215.717 181.190 C 210.982 179.459,207.861 177.081,209.473 176.431 C 209.741 176.322,209.968 176.220,209.976 176.203 C 209.984 176.186,211.478 176.688,213.296 177.318 M120.860 199.772 C 114.358 201.260,109.635 206.086,108.880 212.012 C 108.640 213.893,108.658 213.901,111.670 213.255 C 113.558 212.850,113.619 212.793,113.871 211.205 C 115.299 202.180,129.347 199.060,134.102 206.711 C 135.263 208.578,135.362 208.642,136.698 208.397 C 138.714 208.027,138.882 207.694,138.094 205.632 C 136.146 200.530,128.664 197.986,120.860 199.772 M163.059 202.647 C 158.654 207.963,154.183 214.993,154.930 215.430 C 160.707 218.807,169.842 231.110,174.265 241.471 C 175.332 243.968,176.123 245.323,176.527 245.342 C 176.869 245.359,177.458 245.431,177.836 245.504 C 178.336 245.599,179.211 244.593,181.035 241.827 C 186.225 233.956,193.511 229.356,199.380 230.245 C 202.658 230.742,205.029 233.946,201.916 233.672 C 193.888 232.966,188.236 235.872,183.528 243.127 C 181.760 245.852,181.761 245.845,182.987 246.404 C 186.986 248.226,189.889 254.026,188.294 257.008 C 188.007 257.544,188.111 257.890,188.726 258.447 C 190.891 260.405,191.657 264.506,190.414 267.481 C 189.838 268.858,189.855 268.999,190.806 270.747 C 192.686 274.200,192.475 277.014,190.144 279.565 L 189.364 280.419 190.288 281.713 C 193.963 286.866,189.250 295.707,181.290 298.589 C 179.060 299.396,178.909 299.539,177.521 302.156 C 170.469 315.451,151.213 330.465,133.984 336.102 L 130.273 337.316 130.162 341.128 C 130.013 346.186,129.764 345.930,136.768 347.911 C 148.827 351.323,161.226 353.506,175.586 354.746 C 182.096 355.309,207.025 355.363,210.547 354.822 L 212.695 354.492 212.982 351.953 C 214.581 337.767,215.418 316.011,215.099 296.875 C 214.835 281.002,214.599 276.940,212.657 254.883 L 211.246 238.867 209.948 236.523 C 206.453 230.216,202.117 226.538,192.383 221.625 C 180.844 215.801,176.950 212.447,173.291 205.176 C 172.507 203.618,171.791 202.344,171.701 202.344 C 171.611 202.344,170.120 201.821,168.386 201.182 L 165.235 200.020 163.059 202.647 M176.991 205.487 C 179.581 210.187,184.493 214.106,192.887 218.171 C 201.381 222.285,206.379 226.043,210.554 231.455 C 212.581 234.082,212.479 234.085,214.155 231.348 C 217.763 225.454,218.902 221.741,218.916 215.820 C 218.932 209.210,219.034 209.376,214.934 209.372 C 202.216 209.358,188.397 207.424,176.991 204.061 L 176.053 203.784 176.991 205.487 M122.746 206.074 C 118.820 207.131,117.470 208.257,116.938 210.918 C 116.691 212.148,116.731 212.211,117.615 211.995 C 118.132 211.868,121.455 211.212,125.000 210.536 C 132.392 209.127,132.582 209.031,130.956 207.512 C 128.858 205.552,126.330 205.109,122.746 206.074 M152.344 209.052 C 115.279 215.360,101.523 218.579,96.209 222.187 C 86.363 228.874,79.568 247.701,79.227 269.247 C 79.040 281.032,82.457 273.982,87.299 252.597 C 93.871 223.571,106.076 213.231,120.987 224.061 C 121.826 224.670,121.940 224.616,124.307 222.470 C 132.264 215.257,141.490 212.120,150.802 213.460 L 152.539 213.711 154.004 211.414 C 156.020 208.253,156.129 208.408,152.344 209.052 M222.424 209.283 C 222.148 209.469,222.007 211.432,222.025 214.844 C 222.064 222.195,220.544 227.247,216.193 234.229 C 214.060 237.652,214.059 237.664,215.413 252.768 C 217.681 278.061,217.774 280.223,217.768 307.422 C 217.762 332.883,217.418 341.526,216.014 351.548 C 215.574 354.689,215.227 354.491,220.204 353.943 C 233.636 352.463,248.849 347.687,253.148 343.601 L 254.537 342.280 254.019 338.230 C 253.514 334.293,251.121 314.110,250.366 307.422 C 249.510 299.847,247.875 288.568,246.064 277.742 C 240.954 247.193,237.320 237.927,228.635 233.298 C 225.567 231.663,225.249 231.692,223.181 233.789 C 221.280 235.717,221.027 235.822,220.319 234.969 C 219.092 233.490,223.333 228.906,225.929 228.906 C 228.930 228.906,234.161 232.572,237.342 236.904 C 239.857 240.329,239.990 240.227,239.741 235.059 C 239.501 230.078,238.607 226.938,235.658 220.703 C 232.442 213.905,225.045 207.523,222.424 209.283 M141.211 216.783 C 138.095 217.448,131.606 220.201,131.056 221.091 C 130.920 221.312,131.616 221.836,132.615 222.265 C 142.731 226.601,152.172 238.713,154.812 250.742 L 155.649 254.554 158.542 252.255 C 162.055 249.463,165.772 247.541,169.595 246.539 C 173.089 245.623,173.093 246.043,169.512 238.867 C 164.916 229.659,157.517 220.575,152.344 217.788 C 150.009 216.530,144.660 216.047,141.211 216.783 M239.647 220.996 C 242.454 227.920,243.590 237.621,242.127 242.188 C 241.587 243.873,241.617 244.113,242.850 248.004 C 245.793 257.289,252.344 293.868,252.344 301.014 C 252.344 303.157,253.044 301.317,254.440 295.508 C 259.982 272.442,258.893 255.086,250.494 232.617 C 248.550 227.415,248.023 226.709,243.179 222.814 C 239.966 220.230,239.170 219.820,239.647 220.996 M107.031 223.652 C 99.473 226.021,94.512 234.968,89.836 254.665 C 86.377 269.240,85.332 272.231,80.835 280.436 C 71.529 297.418,67.852 323.738,73.288 334.465 C 75.393 338.619,80.396 342.813,84.293 343.688 C 86.141 344.103,86.156 344.077,85.369 341.845 C 83.338 336.090,83.501 323.946,85.708 316.644 C 86.255 314.832,86.235 314.584,85.330 311.887 C 83.365 306.034,84.186 296.633,87.536 286.610 L 89.090 281.962 87.920 280.196 C 85.507 276.552,85.315 275.436,86.649 272.807 C 89.444 267.303,100.751 250.960,108.366 241.419 C 120.154 226.650,119.835 227.192,117.745 225.469 C 115.039 223.238,110.700 222.502,107.031 223.652 M126.184 224.794 C 121.257 228.911,105.738 248.723,96.536 262.644 C 90.642 271.561,90.846 271.062,93.262 270.664 C 106.324 268.514,120.145 272.430,129.593 280.957 L 131.649 282.813 134.514 282.813 C 139.199 282.813,139.796 281.160,140.123 267.295 C 140.334 258.321,140.125 255.654,138.647 248.471 C 137.799 244.354,137.920 243.803,139.299 245.508 C 142.594 249.579,144.454 268.339,142.417 276.953 C 142.036 278.564,141.631 280.285,141.517 280.777 L 141.309 281.671 142.670 280.869 C 145.446 279.231,145.341 279.565,146.465 268.709 C 147.167 261.925,148.685 257.384,151.214 254.504 C 152.411 253.141,152.418 253.108,151.934 251.076 C 149.320 240.094,141.304 229.856,131.445 224.909 C 128.186 223.274,128.009 223.270,126.184 224.794 M252.582 230.162 C 259.635 243.799,262.705 268.836,259.539 286.887 C 258.875 290.675,258.665 290.500,262.362 289.232 C 271.991 285.929,280.314 279.035,282.191 272.809 C 282.383 272.174,281.558 270.784,278.601 266.754 C 273.156 259.335,271.219 256.389,267.571 249.979 C 265.805 246.875,263.650 243.193,262.781 241.797 C 258.669 235.182,250.157 225.471,252.582 230.162 M224.818 244.934 C 228.169 248.082,226.314 255.078,222.129 255.078 C 217.727 255.078,215.665 247.711,219.228 244.713 C 220.767 243.418,223.311 243.519,224.818 244.934 M221.484 246.796 C 220.186 247.231,219.941 248.931,220.908 250.801 C 221.594 252.126,222.262 252.255,223.182 251.239 C 224.640 249.627,223.323 246.180,221.484 246.796 M170.791 249.401 C 165.993 250.485,162.711 252.448,158.260 256.896 C 153.659 261.494,153.945 261.343,152.992 259.670 C 151.524 257.091,149.915 261.855,149.040 271.374 C 147.797 284.899,146.440 285.759,125.391 286.347 C 118.623 286.536,112.207 286.856,111.133 287.058 C 105.821 288.056,102.356 289.317,98.145 291.784 C 94.230 294.076,96.430 290.471,100.658 287.665 C 104.840 284.889,111.389 283.402,121.704 282.888 L 127.148 282.617 124.805 280.815 C 118.697 276.118,111.882 273.814,103.265 273.536 L 97.351 273.345 94.960 277.590 C 82.813 299.158,85.082 318.508,100.221 322.451 C 115.857 326.524,134.819 320.530,154.476 305.300 C 155.913 304.187,156.261 304.099,159.359 304.063 C 164.933 303.998,168.459 302.153,175.071 295.841 C 179.250 291.851,181.730 290.280,182.647 291.040 C 183.593 291.825,183.281 292.425,181.055 294.106 C 177.580 296.730,178.286 297.336,182.240 295.124 C 187.392 292.243,189.925 287.146,187.970 283.594 C 186.909 281.666,185.588 281.635,180.575 283.421 C 176.257 284.960,175.466 284.903,175.922 283.087 C 176.192 282.008,177.878 281.177,183.124 279.533 C 189.074 277.668,190.138 276.466,188.705 273.227 C 187.454 270.397,183.876 269.938,178.141 271.870 C 174.836 272.983,174.219 272.924,174.219 271.492 C 174.219 269.629,180.357 267.188,185.041 267.188 C 186.914 267.188,187.140 267.089,187.685 266.035 C 190.280 261.018,183.967 258.034,175.934 260.482 C 171.979 261.687,171.094 261.630,171.094 260.166 C 171.094 258.159,176.497 256.186,182.227 256.102 C 185.672 256.051,185.744 256.031,185.843 255.076 C 186.317 250.479,178.711 247.611,170.791 249.401 M228.054 271.887 C 232.295 274.473,231.180 281.783,226.464 282.314 C 224.941 282.486,224.620 282.373,223.524 281.276 C 218.943 276.695,222.806 268.688,228.054 271.887 M89.806 274.561 L 88.901 275.295 89.634 276.922 C 90.472 278.780,90.639 278.705,92.370 275.684 L 93.434 273.828 92.073 273.828 C 91.323 273.828,90.305 274.158,89.806 274.561 M224.853 274.812 C 224.103 275.562,224.072 276.024,224.655 277.698 C 225.196 279.250,226.845 279.286,227.601 277.763 C 228.636 275.674,226.397 273.268,224.853 274.812 M274.930 286.443 C 271.783 288.887,267.851 290.837,262.606 292.558 C 258.408 293.935,257.982 294.163,257.708 295.178 C 257.543 295.789,256.545 299.351,255.490 303.092 L 253.572 309.896 254.911 321.842 C 257.428 344.289,258.003 346.638,263.142 355.484 L 264.864 358.448 264.107 360.181 C 262.348 364.203,262.220 368.791,263.700 374.674 C 264.679 378.567,264.625 382.183,263.523 386.465 C 262.709 389.630,262.686 389.984,263.251 390.648 C 265.968 393.844,269.735 389.565,271.726 381.019 C 273.211 374.646,274.404 373.232,276.513 375.342 C 280.317 379.145,278.739 391.094,273.489 398.234 C 269.128 404.164,273.374 405.226,279.345 399.698 C 288.813 390.931,292.355 373.774,287.701 359.216 C 286.382 355.089,286.048 352.599,285.757 344.727 C 284.922 322.174,282.748 305.041,278.840 290.234 C 277.253 284.220,277.493 284.453,274.930 286.443 M230.176 300.684 C 232.144 302.748,232.496 304.993,231.272 307.689 C 228.898 312.918,223.084 310.421,223.055 304.160 C 223.038 300.240,227.619 298.003,230.176 300.684 M173.155 301.525 C 169.058 305.232,160.259 308.198,157.863 306.680 C 157.488 306.443,156.413 307.081,154.265 308.815 C 150.147 312.140,144.791 315.706,140.259 318.142 L 136.523 320.149 136.620 321.696 C 136.740 323.631,137.591 324.798,140.238 326.660 C 142.966 328.578,143.711 328.518,147.906 326.039 C 159.161 319.389,167.203 312.487,172.112 305.266 C 175.952 299.617,176.184 298.784,173.155 301.525 M226.395 302.958 C 225.644 303.709,225.640 303.865,226.333 305.519 C 227.321 307.878,228.906 307.469,228.906 304.854 C 228.906 302.396,227.796 301.557,226.395 302.958 M88.104 319.629 C 83.645 339.999,88.422 349.382,104.247 351.342 L 106.346 351.602 104.980 349.727 C 101.367 344.767,99.845 339.291,99.821 331.168 L 99.805 325.423 98.026 324.995 C 95.682 324.433,92.838 322.765,90.438 320.547 C 88.165 318.446,88.347 318.518,88.104 319.629 M131.945 322.291 C 131.575 322.506,129.469 323.272,127.265 323.994 C 121.843 325.768,121.508 326.818,125.116 330.740 C 128.121 334.008,131.331 334.293,136.737 331.770 L 140.003 330.245 138.194 329.186 C 135.905 327.844,134.947 326.621,134.114 323.978 C 133.438 321.835,133.134 321.598,131.945 322.291 M102.866 326.783 C 102.287 328.292,103.064 336.919,104.094 340.419 C 107.309 351.346,113.103 355.504,124.429 355.008 C 128.622 354.825,128.465 354.906,128.955 352.667 C 129.159 351.737,129.419 350.669,129.533 350.293 C 129.670 349.841,129.529 349.609,129.117 349.609 C 127.954 349.609,124.030 347.341,122.557 345.817 C 119.988 343.159,119.407 340.760,119.429 332.898 L 119.448 326.147 116.462 326.452 C 112.853 326.822,105.686 326.807,104.191 326.427 C 103.379 326.222,103.047 326.311,102.866 326.783 M229.237 327.572 C 233.844 330.322,231.902 338.274,226.621 338.280 C 221.479 338.286,220.864 328.843,225.911 327.382 C 227.705 326.862,228.084 326.884,229.237 327.572 M226.172 330.859 C 224.832 332.199,225.551 335.156,227.216 335.156 C 228.764 335.156,229.539 331.939,228.292 330.692 C 227.488 329.888,227.114 329.917,226.172 330.859 M122.377 335.938 C 122.674 340.175,123.187 341.874,124.684 343.580 C 126.999 346.216,127.248 346.105,127.195 342.467 C 127.170 340.702,127.284 338.621,127.450 337.844 C 127.735 336.506,127.682 336.401,126.476 335.902 C 125.775 335.611,124.514 334.753,123.673 333.995 L 122.145 332.617 122.377 335.938 M246.983 350.733 C 242.244 352.619,242.307 352.529,243.762 355.306 C 245.507 358.639,249.848 362.780,250.704 361.927 C 251.094 361.539,251.290 349.211,250.906 349.259 C 250.730 349.282,248.965 349.945,246.983 350.733 M132.273 352.807 C 130.906 359.017,127.928 375.989,125.225 392.969 C 124.694 396.299,123.282 405.088,122.085 412.500 C 120.888 419.912,118.946 432.480,117.769 440.430 C 116.591 448.379,115.188 457.784,114.650 461.330 C 113.228 470.705,113.232 470.754,115.624 471.874 C 118.073 473.021,117.820 473.439,118.962 466.362 C 119.495 463.056,121.060 453.408,122.439 444.922 C 123.818 436.436,125.767 424.219,126.771 417.773 C 130.133 396.182,133.161 377.955,134.919 368.725 C 138.539 349.716,138.431 351.803,135.840 350.951 C 134.712 350.580,133.589 350.203,133.345 350.114 C 133.072 350.013,132.661 351.044,132.273 352.807 M141.192 352.884 C 141.109 353.124,140.767 354.990,140.431 357.031 C 140.095 359.072,139.547 362.119,139.214 363.802 C 138.466 367.572,138.488 367.593,141.321 365.872 C 145.598 363.274,152.192 354.365,149.902 354.278 C 149.634 354.268,147.598 353.852,145.378 353.354 C 142.577 352.725,141.296 352.582,141.192 352.884 M236.914 354.132 C 233.709 355.030,225.092 356.579,220.717 357.045 C 215.954 357.551,216.016 357.526,216.016 358.964 C 216.016 360.651,214.923 366.198,213.830 370.065 C 212.604 374.399,212.256 374.250,218.742 372.168 C 224.468 370.330,225.471 370.347,223.644 372.254 C 220.592 375.440,208.959 378.516,199.963 378.516 L 197.551 378.516 197.811 384.082 C 198.388 396.449,199.693 438.815,200.246 463.163 C 200.393 469.650,200.631 475.147,200.773 475.378 C 201.166 476.013,208.546 477.327,214.258 477.778 C 222.655 478.441,234.878 477.489,243.111 475.530 C 249.110 474.102,248.827 474.587,248.835 465.723 C 248.839 461.694,249.010 452.598,249.216 445.508 C 249.422 438.418,249.764 422.773,249.977 410.742 C 250.189 398.711,250.478 383.763,250.618 377.525 L 250.873 366.183 248.509 364.724 C 245.368 362.785,242.117 359.133,240.760 356.017 C 240.160 354.641,239.489 353.531,239.269 353.551 C 239.048 353.570,237.988 353.832,236.914 354.132 M153.280 355.735 C 151.340 361.676,145.795 367.538,140.273 369.482 C 139.176 369.869,138.190 370.274,138.081 370.383 C 137.579 370.884,133.956 392.112,129.691 419.531 C 128.838 425.010,126.989 436.611,125.581 445.313 C 122.245 465.922,121.064 473.540,121.188 473.657 C 121.913 474.340,137.954 477.119,144.727 477.734 C 155.970 478.755,169.531 477.567,169.531 475.561 C 169.531 475.416,170.157 472.637,170.923 469.387 C 171.688 466.136,173.368 458.730,174.657 452.930 C 178.444 435.878,191.184 386.669,193.192 381.335 C 193.719 379.933,194.105 378.754,194.048 378.715 C 193.992 378.676,192.490 378.365,190.712 378.024 C 188.934 377.683,186.690 377.021,185.725 376.554 C 182.581 375.032,182.492 372.946,185.619 374.049 C 187.751 374.801,193.538 375.517,195.107 375.223 C 196.705 374.923,198.023 372.109,199.968 364.844 C 201.810 357.963,203.032 358.755,190.137 358.477 C 177.185 358.197,158.336 356.496,154.197 355.233 C 153.756 355.099,153.429 355.278,153.280 355.735 M207.881 358.178 L 204.628 358.398 203.125 364.299 C 202.298 367.544,201.081 371.391,200.420 372.849 C 199.759 374.306,199.219 375.532,199.219 375.572 C 199.219 375.653,199.508 375.624,205.338 374.973 L 209.308 374.530 210.514 370.175 C 213.081 360.901,213.464 357.765,212.012 357.885 C 211.528 357.925,209.669 358.057,207.881 358.178 M274.271 383.677 C 272.821 389.165,269.758 393.490,266.577 394.539 C 265.193 394.996,263.720 397.762,264.197 399.006 C 264.723 400.377,268.359 401.822,268.359 400.661 C 268.359 400.380,269.557 398.471,271.021 396.419 C 274.708 391.250,276.369 385.847,275.501 381.846 L 275.165 380.294 274.271 383.677 M259.580 393.340 C 258.820 394.811,258.824 396.081,259.592 397.179 C 260.290 398.175,261.328 398.335,261.328 397.445 C 261.328 397.115,261.672 396.171,262.091 395.348 L 262.854 393.852 261.968 393.020 C 260.781 391.904,260.289 391.970,259.580 393.340 M108.407 472.754 C 106.448 478.669,106.718 487.989,108.936 491.016 C 113.532 497.286,147.450 501.350,162.793 497.468 C 169.419 495.792,172.266 490.812,172.266 480.896 C 172.266 478.473,172.264 478.472,169.388 479.515 C 158.397 483.505,125.012 480.270,112.832 474.036 C 109.117 472.134,108.657 472.001,108.407 472.754 M251.174 475.193 C 245.198 481.359,209.658 483.408,199.602 478.167 C 197.659 477.154,197.652 477.174,197.568 484.065 C 197.511 488.669,197.599 489.479,198.281 490.653 C 202.227 497.449,231.525 498.850,247.986 493.030 C 253.415 491.111,252.808 491.922,253.222 486.031 C 253.926 476.039,253.343 472.955,251.174 475.193 M251.953 494.909 C 245.623 496.919,240.224 500.805,237.060 505.627 C 233.119 511.634,236.815 510.734,243.883 503.966 C 247.781 500.233,248.645 499.606,251.819 498.210 L 255.380 496.643 254.610 495.587 C 253.801 494.476,253.531 494.407,251.953 494.909 M109.172 497.535 C 108.366 499.645,108.020 499.385,112.680 500.170 C 115.901 500.713,125.315 502.850,128.322 503.720 C 128.910 503.891,129.283 503.644,129.825 502.728 C 130.706 501.235,131.125 501.473,125.805 500.446 C 123.347 499.971,118.748 498.733,115.584 497.694 L 109.833 495.804 109.172 497.535 M198.439 496.150 C 198.440 496.441,198.062 500.796,197.598 505.828 L 196.755 514.976 197.728 515.813 C 201.845 519.355,221.338 525.790,237.297 528.875 C 246.753 530.704,246.484 530.681,246.484 529.681 C 246.484 520.941,256.489 508.526,266.196 505.218 C 268.911 504.293,267.935 503.730,264.533 504.258 C 259.217 505.083,255.520 507.373,250.194 513.142 C 244.512 519.298,239.453 519.458,239.453 513.483 L 239.453 511.791 237.598 512.376 C 230.967 514.469,230.762 507.565,237.255 500.879 C 238.559 499.536,239.455 498.438,239.247 498.438 C 239.038 498.438,237.392 498.698,235.588 499.016 C 222.662 501.290,209.235 500.145,199.121 495.906 C 198.665 495.715,198.438 495.796,198.439 496.150 M255.664 499.958 C 249.248 501.829,242.578 508.359,242.578 512.771 C 242.578 515.956,243.893 515.413,248.738 510.228 C 253.824 504.785,259.281 501.606,263.597 501.573 C 265.272 501.560,264.897 500.944,262.620 499.968 C 260.500 499.059,258.754 499.057,255.664 499.958 M160.742 500.807 C 155.519 501.871,147.179 502.397,140.254 502.101 L 134.164 501.841 132.902 503.278 C 131.374 505.018,131.330 505.561,132.662 506.274 C 133.223 506.574,134.448 507.672,135.384 508.712 C 140.261 514.137,136.144 518.228,128.687 515.367 C 128.152 515.161,128.181 515.374,128.870 516.726 C 129.991 518.923,129.939 520.877,128.729 522.088 C 127.330 523.487,126.672 523.338,120.357 520.190 C 109.986 515.021,98.019 512.366,94.933 514.551 L 93.967 515.234 95.927 515.234 C 101.468 515.234,112.010 519.257,117.773 523.571 C 123.024 527.501,128.906 535.173,128.906 538.090 C 128.906 538.511,129.136 538.656,129.590 538.522 C 129.966 538.411,131.943 537.860,133.984 537.298 C 143.940 534.559,153.387 529.903,162.109 523.437 L 164.648 521.555 164.783 511.072 C 164.857 505.306,164.999 500.456,165.099 500.294 C 165.337 499.908,164.913 499.958,160.742 500.807 M104.297 502.848 C 102.325 503.842,102.810 504.951,105.350 505.252 C 109.214 505.711,114.482 507.076,118.358 508.624 C 132.493 514.270,138.777 514.074,130.069 508.259 C 125.808 505.414,107.029 501.470,104.297 502.848 M270.703 507.038 C 261.284 508.673,252.575 517.282,249.997 527.506 C 249.054 531.246,248.709 530.898,253.802 531.346 C 270.018 532.772,287.891 528.728,287.891 523.632 C 287.891 519.048,280.345 509.268,275.340 507.367 C 273.277 506.583,273.309 506.585,270.703 507.038 M98.910 509.034 C 96.432 510.260,96.999 510.708,101.398 510.997 C 107.831 511.421,116.302 514.181,123.278 518.128 C 126.726 520.078,127.248 519.881,125.741 517.199 C 122.703 511.794,104.516 506.259,98.910 509.034 M90.338 518.961 C 85.797 520.184,79.688 526.782,79.688 530.462 C 79.688 534.881,99.960 540.152,115.234 539.704 C 127.083 539.356,126.863 539.478,124.098 534.809 C 118.030 524.563,100.353 516.264,90.338 518.961 M194.775 519.580 C 193.658 525.169,196.831 527.860,209.570 532.126 C 245.575 544.182,281.729 544.706,287.459 533.256 C 288.199 531.778,288.834 528.761,288.359 528.981 C 288.209 529.050,287.013 529.667,285.702 530.350 C 268.898 539.115,225.977 533.827,197.585 519.495 C 194.846 518.112,195.070 518.106,194.775 519.580 M163.477 526.234 C 139.741 544.248,106.117 548.476,82.081 536.470 L 78.028 534.446 78.270 536.210 C 80.002 548.841,113.563 554.137,139.258 545.833 C 151.675 541.820,162.944 533.852,164.689 527.849 C 165.497 525.068,165.321 524.834,163.477 526.234 " stroke="none" fill="#212121" fill-rule="evenodd"></path><path id="path1" d="M183.984 2.702 C 172.008 4.353,163.166 6.502,154.903 9.770 L 148.922 12.136 146.885 10.869 C 140.423 6.852,128.501 11.880,126.967 19.268 C 126.730 20.413,126.636 21.612,126.759 21.933 C 126.920 22.352,125.468 23.510,121.597 26.052 C 88.746 47.623,76.431 87.436,91.261 124.123 L 93.039 128.519 91.401 130.475 C 82.048 141.646,90.029 165.220,105.884 173.255 C 113.810 177.271,125.068 176.298,131.007 171.083 L 132.355 169.899 134.008 173.001 C 139.035 182.435,147.833 190.731,158.957 196.527 C 163.002 198.634,162.939 198.409,160.450 201.916 C 157.894 205.515,158.587 205.213,150.000 206.468 C 146.025 207.049,142.584 207.596,142.354 207.684 C 142.121 207.772,141.646 206.810,141.290 205.529 C 139.650 199.630,134.399 196.492,126.172 196.495 C 114.524 196.498,107.218 202.463,105.904 213.042 L 105.664 214.969 102.411 216.062 C 92.371 219.433,85.692 226.727,81.335 239.077 C 76.574 252.574,74.615 273.828,77.818 277.237 L 78.653 278.127 76.850 281.547 C 68.264 297.831,65.298 323.932,70.762 335.122 C 73.870 341.489,79.850 346.301,85.232 346.768 C 87.523 346.967,87.839 347.116,89.745 348.903 C 93.220 352.159,99.664 354.280,106.117 354.292 C 108.403 354.296,109.364 354.510,111.374 355.460 C 115.154 357.248,118.840 357.923,123.883 357.750 L 128.204 357.602 127.998 358.977 C 127.885 359.733,126.733 366.592,125.439 374.219 C 124.144 381.846,122.540 391.514,121.875 395.703 C 118.471 417.126,117.834 421.169,116.611 429.102 C 115.883 433.828,115.000 439.717,114.649 442.188 C 114.299 444.658,113.233 451.745,112.280 457.937 C 111.327 464.128,110.547 469.270,110.547 469.363 C 110.547 469.455,109.859 469.531,109.019 469.531 C 104.349 469.531,102.314 483.668,105.860 491.481 C 107.267 494.581,106.048 499.708,103.798 500.158 C 102.237 500.471,100.499 502.347,100.176 504.069 C 99.935 505.353,99.669 505.625,97.887 506.413 C 95.657 507.399,94.061 509.046,93.302 511.144 C 92.897 512.263,91.983 513.069,88.451 515.422 C 80.881 520.463,76.903 526.187,75.597 533.920 C 73.733 544.949,89.429 552.778,113.477 552.815 C 135.797 552.849,161.437 542.383,166.784 531.055 C 167.785 528.932,167.758 529.409,167.662 515.625 C 167.634 511.650,167.692 506.347,167.790 503.839 C 167.888 501.331,167.969 499.132,167.969 498.951 C 167.969 498.770,168.682 498.185,169.554 497.651 C 173.775 495.066,176.912 479.352,173.718 476.797 L 172.631 475.927 173.794 470.483 C 177.579 452.773,180.001 442.470,185.774 419.531 C 189.315 405.459,192.778 391.924,193.470 389.453 L 194.727 384.961 194.976 388.086 C 195.408 393.498,197.091 449.545,197.342 466.838 L 197.447 474.105 196.227 475.494 C 194.184 477.820,193.931 487.582,195.749 493.945 C 195.810 494.160,195.742 495.391,195.597 496.680 C 195.452 497.969,194.965 502.539,194.514 506.836 C 194.032 511.433,193.441 515.206,193.078 516.002 C 188.155 526.814,194.783 532.081,222.119 539.080 C 256.650 547.922,284.550 545.921,290.226 534.197 C 294.798 524.752,285.101 506.554,273.943 503.641 C 270.995 502.871,268.888 501.763,267.415 500.209 C 265.940 498.651,263.341 497.276,260.742 496.680 C 259.056 496.292,258.567 495.942,257.160 494.112 L 255.531 491.992 255.869 488.867 C 257.006 478.372,256.084 471.354,253.501 470.837 C 251.610 470.459,251.575 470.039,251.960 452.468 C 252.157 443.484,252.499 427.871,252.720 417.773 C 252.941 407.676,253.313 387.637,253.546 373.242 C 253.917 350.390,254.049 346.984,254.585 346.387 C 255.401 345.479,255.753 345.525,256.071 346.582 C 256.217 347.065,257.492 349.890,258.906 352.858 C 261.430 358.158,261.467 358.284,261.000 359.889 C 259.223 366.000,259.212 369.654,260.956 375.334 C 262.515 380.409,261.621 385.937,258.576 390.063 C 255.046 394.846,255.978 399.973,260.561 400.980 C 261.238 401.128,262.636 401.774,263.665 402.414 C 264.695 403.054,266.293 403.680,267.217 403.803 C 268.140 403.927,269.522 404.457,270.288 404.980 C 275.515 408.551,284.727 401.131,289.438 389.555 C 293.219 380.265,293.533 370.478,290.408 359.375 C 289.153 354.916,289.002 353.814,288.667 346.680 C 287.324 318.059,285.411 303.214,281.025 287.362 L 279.636 282.341 281.426 280.062 C 286.386 273.750,286.339 272.493,280.872 265.234 C 276.331 259.205,273.447 254.854,269.352 247.852 C 260.268 232.320,253.969 225.682,241.406 218.399 C 237.516 216.143,235.790 214.842,232.915 211.996 C 228.862 207.984,228.839 208.141,233.594 207.461 C 266.876 202.701,289.931 181.772,291.298 155.078 L 291.528 150.586 293.427 147.270 C 300.379 135.131,299.989 119.693,292.613 114.997 C 289.867 113.249,289.949 113.878,291.557 106.907 C 292.729 101.826,293.481 94.705,293.298 90.430 L 293.164 87.305 299.414 87.050 C 324.978 86.006,337.727 73.118,329.688 56.445 C 322.801 42.161,305.396 34.646,279.073 34.592 L 268.497 34.570 264.033 30.420 C 239.634 7.730,213.404 -1.352,183.984 2.702 M211.523 5.820 C 231.288 9.319,245.531 16.760,261.230 31.788 C 265.236 35.623,265.453 35.230,258.887 36.039 C 222.228 40.553,183.439 58.184,139.323 90.383 C 130.352 96.931,131.028 96.648,130.502 94.072 C 124.712 65.732,127.540 39.233,138.080 23.047 C 140.380 19.515,140.893 19.126,147.277 16.074 C 167.124 6.586,192.745 2.496,211.523 5.820 M143.848 12.911 C 145.507 13.372,145.726 13.882,144.434 14.281 C 143.950 14.431,140.582 15.937,136.948 17.628 C 129.534 21.079,129.688 21.033,129.688 19.813 C 129.688 15.720,138.497 11.425,143.848 12.911 M134.336 24.193 C 124.573 41.127,122.015 69.402,127.954 94.727 C 128.792 98.296,128.745 98.444,126.160 100.506 C 121.375 104.321,113.700 111.275,107.975 116.980 C 103.182 121.756,101.507 123.163,99.000 124.520 C 95.418 126.458,95.257 126.439,94.124 123.949 C 84.320 102.392,86.296 73.831,99.047 52.830 C 105.846 41.630,117.473 31.148,132.813 22.388 C 136.317 20.387,136.444 20.537,134.336 24.193 M297.850 39.043 C 307.876 41.147,312.215 42.892,317.773 47.059 C 322.910 50.909,326.980 55.637,327.534 58.398 L 327.769 59.570 327.075 58.594 C 315.418 42.184,287.415 37.930,256.591 47.886 C 244.634 51.748,233.877 57.284,214.258 69.671 C 188.745 85.780,182.668 88.432,166.280 90.610 C 163.028 91.042,147.463 91.091,145.525 90.676 L 144.370 90.428 147.087 88.422 C 186.823 59.097,226.326 42.542,267.578 37.929 C 275.104 37.087,291.386 37.687,297.850 39.043 M300.401 46.096 C 315.794 49.231,328.456 59.685,328.507 69.302 C 328.557 78.429,305.527 86.999,288.867 84.054 L 287.305 83.778 287.028 79.877 C 285.943 64.592,277.403 50.708,267.815 48.638 C 264.935 48.017,272.952 46.312,284.180 45.158 C 287.786 44.787,296.432 45.287,300.401 46.096 M262.500 52.465 C 262.500 66.483,250.923 80.692,236.495 84.382 C 231.463 85.669,230.652 85.497,232.198 83.470 C 235.580 79.035,237.234 72.910,237.249 64.771 L 237.260 59.034 243.813 56.060 C 249.074 53.672,260.858 49.299,262.207 49.233 C 262.368 49.225,262.500 50.680,262.500 52.465 M267.802 51.037 C 272.677 52.675,276.743 57.085,280.287 64.579 C 284.564 73.621,285.024 77.796,284.351 101.402 C 283.790 121.044,283.913 123.313,285.988 131.746 C 291.999 156.181,288.347 172.323,273.660 186.223 C 249.797 208.806,200.409 212.948,163.086 195.496 C 151.161 189.920,141.875 181.547,135.343 170.479 C 132.275 165.281,132.792 165.584,130.648 167.727 C 121.195 177.181,105.555 174.202,96.324 161.188 C 85.537 145.981,89.008 129.440,103.850 125.324 C 114.317 122.422,122.357 128.328,129.064 143.848 C 130.349 146.820,130.673 146.733,134.173 142.480 C 140.103 135.277,142.834 130.151,146.252 119.817 C 147.296 116.660,148.654 113.482,149.647 111.868 C 152.988 106.442,157.031 96.925,157.031 94.490 C 157.031 94.083,157.163 93.740,157.324 93.727 C 157.485 93.714,159.397 93.638,161.571 93.558 C 165.278 93.422,174.021 92.074,179.626 90.775 C 187.027 89.059,196.485 84.143,216.978 71.358 C 235.220 59.978,234.475 60.316,233.414 63.888 C 229.886 75.769,212.476 87.219,191.327 91.568 C 179.879 93.921,175.752 97.155,175.106 104.275 C 174.848 107.121,175.307 107.323,176.688 104.967 C 179.860 99.554,184.643 97.149,192.773 96.876 C 199.250 96.659,200.302 96.105,197.297 94.493 C 195.781 93.681,195.615 93.789,200.554 92.371 C 215.063 88.207,228.829 78.974,233.441 70.313 L 234.169 68.945 234.297 70.010 C 234.684 73.229,231.215 81.149,227.804 84.834 C 224.515 88.386,225.975 89.096,233.648 87.678 C 251.732 84.336,265.234 69.321,265.234 52.553 C 265.234 50.180,265.239 50.177,267.802 51.037 M258.711 83.516 C 252.207 85.840,250.167 89.866,256.191 88.490 C 264.005 86.705,270.484 89.243,273.361 95.215 C 274.337 97.240,275.391 96.698,275.391 94.171 C 275.391 87.567,265.340 81.147,258.711 83.516 M291.016 90.054 C 291.016 95.658,289.258 106.632,287.515 111.914 L 286.741 114.258 286.932 104.102 C 287.037 98.516,287.223 92.495,287.346 90.723 L 287.570 87.500 289.293 87.500 L 291.016 87.500 291.016 90.054 M154.357 93.869 C 154.831 94.595,152.596 100.146,148.900 107.422 C 146.654 111.846,144.493 116.800,143.329 120.197 C 140.462 128.563,137.915 133.346,133.240 139.138 C 130.990 141.926,131.142 141.949,129.448 138.574 C 124.309 128.337,118.559 123.248,110.938 122.190 C 109.111 121.936,107.539 121.669,107.443 121.595 C 106.605 120.952,126.475 103.509,136.625 95.978 L 140.633 93.004 147.367 93.241 C 151.173 93.374,154.213 93.647,154.357 93.869 M257.422 110.186 C 250.129 113.481,247.514 125.422,252.777 131.401 C 258.123 137.474,265.722 133.837,265.745 125.195 C 265.765 117.523,259.053 113.112,253.924 117.428 C 252.610 118.533,252.387 118.271,253.380 116.786 C 261.340 104.883,274.959 115.455,270.754 130.273 C 269.905 133.262,270.476 133.029,271.889 129.810 C 277.029 118.103,267.752 105.520,257.422 110.186 M183.927 111.837 C 177.893 114.390,174.461 121.367,175.721 128.520 C 177.867 140.706,191.397 141.557,192.429 129.570 C 193.129 121.443,186.149 116.088,180.262 120.237 C 177.898 121.904,177.778 121.689,179.580 119.013 C 184.963 111.021,194.951 112.058,199.166 121.047 C 200.613 124.133,200.639 129.681,199.220 132.617 C 198.701 133.691,198.199 134.746,198.104 134.961 C 197.447 136.457,199.828 133.415,200.675 131.677 C 205.930 120.891,194.508 107.361,183.927 111.837 M290.934 116.932 C 292.667 118.211,293.721 119.648,294.577 121.902 C 295.594 124.578,295.537 125.000,294.159 125.000 C 292.542 125.000,291.055 125.706,289.395 127.262 C 287.772 128.782,287.877 128.897,287.083 124.717 C 286.601 122.180,286.864 120.248,288.088 117.317 C 288.732 115.775,289.268 115.703,290.934 116.932 M235.928 121.103 C 235.062 121.969,234.916 123.432,235.625 124.141 C 236.359 124.875,237.818 124.693,238.292 123.809 C 239.438 121.667,237.539 119.492,235.928 121.103 M219.446 122.491 C 218.888 123.717,219.402 124.745,220.667 124.932 C 222.405 125.190,223.297 123.352,222.042 122.098 C 221.118 121.174,219.967 121.348,219.446 122.491 M294.972 127.990 C 295.763 128.945,295.627 134.760,294.739 137.891 C 293.914 140.800,291.773 145.700,291.582 145.117 C 291.511 144.902,290.999 142.266,290.444 139.258 C 289.889 136.250,289.334 133.321,289.210 132.749 C 288.890 131.272,292.329 127.556,294.190 127.369 C 294.325 127.355,294.677 127.635,294.972 127.990 M229.460 132.220 C 225.249 133.136,219.500 136.474,219.029 138.277 C 218.738 139.390,219.197 139.287,223.502 137.274 C 233.711 132.502,242.627 134.111,244.183 141.006 C 246.024 149.169,232.924 154.325,221.812 149.810 C 219.100 148.708,218.717 149.272,220.936 151.101 C 229.282 157.981,245.765 153.219,246.754 143.641 C 247.626 135.186,239.746 129.981,229.460 132.220 M159.453 132.891 C 158.609 133.735,158.887 135.519,159.936 135.997 C 161.187 136.567,162.027 136.206,162.339 134.962 C 162.783 133.192,160.669 131.675,159.453 132.891 M103.125 135.206 C 101.048 135.825,99.211 137.419,98.360 139.342 C 97.183 142.003,98.313 143.435,99.717 141.059 C 102.965 135.561,109.260 136.551,114.248 143.346 C 115.901 145.598,115.896 145.551,114.551 145.821 C 109.288 146.879,106.725 155.169,110.451 159.082 C 112.321 161.045,113.583 160.001,112.147 157.679 C 109.910 154.059,112.170 148.404,115.900 148.288 C 117.344 148.243,117.414 148.306,118.555 150.661 C 120.226 154.111,121.937 154.292,121.310 150.953 C 119.661 142.160,109.453 133.321,103.125 135.206 M277.813 137.578 C 277.555 137.836,277.344 138.416,277.344 138.867 C 277.344 140.781,280.249 141.443,280.703 139.633 C 281.143 137.879,279.021 136.370,277.813 137.578 M148.292 138.097 C 147.728 139.567,148.026 140.605,149.089 140.872 C 150.588 141.248,151.843 139.734,151.040 138.518 C 150.355 137.480,148.630 137.215,148.292 138.097 M170.692 143.380 C 170.020 144.635,170.384 145.839,171.559 146.251 C 172.909 146.724,173.828 146.014,173.828 144.497 C 173.828 142.693,171.503 141.865,170.692 143.380 M269.286 145.568 C 268.967 146.840,269.522 147.809,270.667 147.979 C 272.405 148.237,273.297 146.399,272.042 145.145 C 271.037 144.139,269.589 144.361,269.286 145.568 M159.785 145.875 C 159.147 146.644,159.421 148.460,160.254 148.982 C 161.217 149.585,162.271 148.840,162.436 147.441 C 162.637 145.730,160.804 144.647,159.785 145.875 M279.002 149.707 C 277.789 151.223,278.181 153.125,279.707 153.125 C 280.622 153.125,281.641 152.096,281.641 151.172 C 281.641 149.696,279.819 148.685,279.002 149.707 M185.666 151.343 C 183.232 152.476,180.351 155.039,179.674 156.672 C 178.885 158.578,179.653 158.753,182.097 157.224 C 183.296 156.474,184.910 155.596,185.684 155.272 L 187.092 154.684 187.936 156.338 C 191.249 162.833,202.995 169.624,214.453 171.669 C 232.000 174.802,249.292 170.627,260.199 160.625 L 262.391 158.615 263.857 160.248 C 266.298 162.967,267.080 160.860,265.159 156.741 C 264.031 154.323,262.467 153.364,259.384 153.200 C 255.129 152.974,253.744 155.104,257.785 155.660 C 260.610 156.049,260.452 156.713,256.836 159.643 C 239.344 173.820,209.039 173.348,193.664 158.659 C 189.200 154.394,188.956 153.544,192.188 153.516 C 193.909 153.501,194.648 153.042,194.467 152.102 C 194.124 150.312,188.856 149.858,185.666 151.343 M209.212 176.901 C 208.732 177.677,212.068 179.678,216.093 181.028 C 221.887 182.972,229.370 182.664,234.724 180.261 C 239.805 177.980,238.968 177.403,232.201 178.520 C 224.863 179.732,219.343 179.507,214.022 177.780 C 209.974 176.466,209.531 176.385,209.212 176.901 M131.248 199.645 C 135.089 200.469,140.288 206.289,138.673 207.957 C 137.487 209.182,135.126 208.894,134.381 207.433 C 130.112 199.066,114.063 202.558,114.063 211.854 C 114.063 212.650,113.825 212.929,112.988 213.116 C 112.397 213.249,111.315 213.509,110.584 213.695 C 108.786 214.152,108.471 213.857,108.690 211.919 C 109.703 202.933,120.128 197.261,131.248 199.645 M169.049 201.184 L 172.150 202.368 173.751 205.598 C 176.869 211.892,181.533 215.952,191.211 220.800 C 199.033 224.717,201.081 226.026,204.439 229.257 C 209.463 234.089,211.350 237.521,211.762 242.578 C 211.929 244.619,212.506 251.123,213.044 257.031 C 216.044 289.960,216.191 322.454,213.461 348.985 C 212.800 355.403,213.205 354.811,209.249 355.141 C 186.631 357.024,156.926 353.997,134.779 347.553 L 130.300 346.249 129.964 344.707 C 129.502 342.590,129.850 337.944,130.517 337.317 C 130.813 337.039,132.549 336.326,134.375 335.733 C 151.784 330.078,174.761 311.458,178.276 300.157 C 178.441 299.624,179.108 299.165,180.183 298.844 C 188.686 296.301,193.586 288.020,190.175 281.957 C 189.147 280.131,189.146 280.123,189.924 279.419 C 192.123 277.430,192.388 274.330,190.655 270.894 C 189.650 268.900,189.576 268.533,190.040 267.811 C 191.525 265.502,191.221 262.283,189.247 259.413 C 188.072 257.704,187.953 257.323,188.333 256.489 C 189.726 253.430,186.013 247.356,181.915 245.990 C 181.193 245.749,185.042 240.403,187.618 238.069 C 192.099 234.010,196.943 232.270,200.581 233.414 C 202.990 234.172,203.329 234.069,202.981 232.682 C 202.323 230.063,196.450 229.724,191.598 232.025 C 188.125 233.672,182.910 238.762,180.487 242.871 C 178.885 245.588,178.758 245.703,177.349 245.703 L 175.881 245.703 174.057 241.504 C 169.648 231.354,161.792 220.537,155.508 215.965 L 154.179 214.999 157.140 210.527 C 160.713 205.131,164.762 200.000,165.448 200.000 C 165.724 200.000,167.344 200.533,169.049 201.184 M179.739 204.614 C 187.569 207.031,198.566 208.607,209.469 208.873 L 218.352 209.090 218.744 210.502 C 220.329 216.208,218.398 225.108,214.137 231.735 C 212.366 234.490,212.787 234.580,209.766 230.807 C 205.946 226.039,201.688 222.814,194.531 219.271 C 187.523 215.801,184.244 213.778,181.277 211.097 C 178.162 208.281,174.893 202.941,176.712 203.639 C 177.009 203.753,178.371 204.192,179.739 204.614 M128.790 205.932 C 129.932 206.417,132.422 208.541,132.422 209.030 C 132.422 209.186,131.938 209.408,131.348 209.524 C 128.755 210.033,117.346 212.200,116.996 212.250 C 116.475 212.324,116.747 210.214,117.430 208.893 C 118.735 206.369,125.601 204.579,128.790 205.932 M155.846 208.887 C 155.801 209.872,152.407 213.853,151.728 213.717 C 142.992 211.970,132.581 215.348,124.449 222.568 L 121.749 224.966 120.307 223.824 C 106.755 213.090,93.880 224.399,87.499 252.641 C 81.842 277.673,77.439 283.285,79.303 263.086 C 80.885 245.950,85.683 232.013,92.332 225.242 C 98.474 218.988,102.844 217.716,142.773 210.561 C 153.976 208.553,155.872 208.310,155.846 208.887 M229.976 212.988 C 235.550 218.458,239.671 226.988,239.845 233.419 C 240.039 240.604,239.944 240.789,237.695 237.637 C 234.575 233.263,228.598 228.906,225.720 228.906 C 223.872 228.906,220.313 232.622,220.313 234.551 C 220.313 235.646,221.690 235.184,223.261 233.562 C 225.160 231.601,226.528 231.626,229.735 233.679 C 237.882 238.896,241.460 248.573,246.458 278.906 C 249.201 295.553,249.149 295.171,252.328 322.656 C 252.986 328.350,253.808 335.114,254.153 337.687 L 254.782 342.366 253.099 343.860 C 247.935 348.443,234.551 352.448,217.620 354.477 L 215.513 354.729 215.792 352.072 C 218.695 324.395,218.556 287.840,215.422 255.078 C 215.104 251.748,214.635 246.444,214.381 243.292 L 213.920 237.561 215.952 234.246 C 220.621 226.633,222.056 221.644,221.787 213.965 L 221.612 208.984 223.753 208.984 L 225.895 208.984 229.976 212.988 M151.953 217.457 C 157.171 219.947,164.976 229.372,169.824 239.035 C 173.338 246.039,173.332 245.815,170.021 246.632 C 165.515 247.744,160.896 250.228,157.310 253.468 C 155.710 254.914,155.098 254.751,155.084 252.876 C 155.017 243.509,144.110 228.332,133.676 223.088 C 130.047 221.264,130.027 221.132,133.134 219.573 C 140.354 215.950,147.188 215.182,151.953 217.457 M241.669 221.349 C 242.706 222.134,244.724 223.806,246.153 225.066 L 248.750 227.355 251.156 233.841 C 259.173 255.453,260.159 272.845,254.648 295.410 C 252.881 302.644,252.541 303.310,252.154 300.293 C 249.129 276.689,245.969 259.192,242.789 248.438 C 241.489 244.040,241.473 243.896,242.014 241.602 C 243.311 236.095,242.203 227.629,239.265 220.605 C 238.820 219.542,239.602 219.784,241.669 221.349 M115.334 223.787 C 117.198 224.586,119.531 226.406,119.531 227.061 C 119.531 227.533,118.565 228.806,110.129 239.453 C 98.211 254.493,85.938 272.701,85.938 275.341 C 85.938 276.326,87.177 278.939,88.463 280.664 L 89.336 281.836 87.679 286.914 C 84.325 297.192,83.536 306.147,85.486 311.818 L 86.393 314.456 85.598 317.872 C 83.436 327.177,83.658 337.776,86.137 343.517 C 87.161 345.891,80.150 342.722,76.664 339.237 C 67.127 329.699,69.073 301.326,80.708 280.273 C 85.069 272.382,86.226 268.946,90.565 250.977 C 95.841 229.127,104.814 219.278,115.334 223.787 M132.437 225.230 C 140.816 229.633,147.611 237.810,151.090 247.677 C 152.733 252.337,152.741 252.706,151.254 254.584 C 148.671 257.845,147.179 262.792,146.495 270.362 C 145.685 279.319,145.609 279.538,142.811 281.020 C 140.972 281.993,140.956 281.948,141.912 278.516 C 144.161 270.433,142.604 250.543,139.364 245.974 C 138.172 244.292,138.159 244.813,139.253 250.444 C 141.641 262.736,140.634 281.111,137.485 282.705 C 135.020 283.953,132.116 283.372,129.536 281.116 C 119.950 272.738,108.377 269.292,94.785 270.770 C 90.431 271.243,90.497 271.618,93.977 266.173 C 102.807 252.357,119.595 230.544,125.672 224.989 C 128.051 222.815,127.826 222.807,132.437 225.230 M255.543 231.866 C 259.814 236.878,262.860 241.315,266.647 248.044 C 270.917 255.629,273.033 258.897,278.265 265.982 C 282.629 271.893,282.811 272.325,281.783 274.336 C 278.620 280.528,271.749 286.025,263.392 289.049 C 258.592 290.786,258.610 290.792,259.220 287.598 C 262.576 270.053,259.641 244.535,252.686 230.777 C 250.961 227.365,252.065 227.786,255.543 231.866 M219.284 244.833 C 215.397 247.981,218.518 256.091,223.089 254.721 C 226.677 253.646,227.683 247.960,224.795 245.072 C 223.632 243.909,220.588 243.776,219.284 244.833 M223.452 247.754 C 224.349 249.207,224.196 250.558,222.999 251.758 C 221.485 253.275,219.205 249.394,220.474 247.458 C 221.357 246.110,222.507 246.224,223.452 247.754 M180.065 249.015 C 183.641 249.967,186.083 252.480,185.858 254.978 L 185.742 256.270 181.836 256.391 C 176.292 256.563,171.094 258.396,171.094 260.178 C 171.094 261.455,172.123 261.495,175.817 260.362 C 183.785 257.918,190.063 260.570,188.074 265.541 C 187.403 267.217,186.604 267.578,183.565 267.578 C 180.182 267.578,174.219 270.070,174.219 271.483 C 174.219 272.705,174.845 272.739,178.139 271.699 C 182.399 270.353,186.608 270.302,187.774 271.582 C 190.996 275.120,189.685 277.751,183.831 279.494 C 178.187 281.174,176.172 282.196,176.172 283.377 C 176.172 284.705,176.958 284.675,180.651 283.208 C 185.002 281.480,186.315 281.352,187.435 282.546 C 190.187 285.482,188.383 291.346,183.793 294.378 C 178.941 297.584,177.231 297.238,181.110 293.835 C 183.250 291.958,183.576 291.016,182.085 291.016 C 180.901 291.016,178.060 293.098,174.005 296.938 C 168.082 302.549,164.334 304.390,159.108 304.256 C 156.310 304.184,156.295 304.189,153.639 306.150 C 133.590 320.953,116.602 326.350,100.986 322.876 C 85.561 319.444,82.497 300.427,93.935 279.105 C 97.148 273.115,97.232 273.047,101.447 273.048 C 110.326 273.053,118.502 275.762,125.293 280.950 C 128.112 283.104,127.991 283.203,122.559 283.205 C 110.478 283.209,101.897 285.743,97.528 290.596 C 95.570 292.772,95.921 292.977,98.708 291.285 C 105.199 287.345,112.936 285.941,128.188 285.939 C 145.370 285.936,147.799 284.229,148.833 271.429 C 149.324 265.344,150.086 261.644,151.239 259.751 L 152.062 258.398 153.055 259.631 L 154.049 260.864 157.786 257.063 C 164.590 250.144,172.954 247.123,180.065 249.015 M223.323 272.272 C 220.517 274.479,221.426 280.449,224.782 281.852 C 229.823 283.958,232.788 275.850,228.275 272.300 C 226.929 271.241,224.650 271.228,223.323 272.272 M93.750 273.605 C 93.750 273.911,90.920 278.529,90.617 278.716 C 90.239 278.949,89.063 276.499,89.063 275.478 C 89.063 274.578,91.052 273.460,92.676 273.446 C 93.267 273.442,93.750 273.513,93.750 273.605 M227.529 274.981 C 228.554 276.963,227.820 279.297,226.172 279.297 C 224.332 279.297,223.496 275.551,225.087 274.436 C 226.336 273.562,226.855 273.677,227.529 274.981 M278.321 287.660 C 282.342 300.845,284.923 319.879,285.951 343.945 C 286.355 353.403,286.551 354.760,288.438 361.121 C 292.369 374.372,288.213 392.232,279.388 400.013 C 273.782 404.955,268.734 404.069,272.778 398.852 C 275.225 395.697,275.996 394.295,277.091 391.016 C 279.685 383.240,277.975 373.612,274.213 374.807 C 273.404 375.063,273.155 375.762,271.881 381.365 C 270.482 387.521,267.751 391.797,265.221 391.797 C 263.746 391.797,262.350 390.463,262.626 389.317 C 264.711 380.650,264.742 380.090,263.438 374.484 C 262.214 369.220,262.292 364.601,263.673 360.643 L 264.526 358.200 262.763 355.174 C 257.698 346.479,256.795 342.405,254.083 316.016 L 253.421 309.570 255.421 302.592 C 256.522 298.754,257.422 295.278,257.422 294.869 C 257.422 294.041,257.742 293.886,262.500 292.410 C 266.868 291.055,272.326 288.329,275.000 286.166 C 276.182 285.210,277.187 284.416,277.234 284.402 C 277.280 284.387,277.770 285.853,278.321 287.660 M175.391 300.170 C 175.391 306.174,147.537 329.859,142.487 328.148 C 139.139 327.014,136.328 323.826,136.328 321.162 C 136.328 320.070,136.601 319.838,139.979 318.060 C 144.574 315.641,150.621 311.627,154.211 308.612 C 156.813 306.427,157.054 306.311,158.254 306.655 C 161.533 307.595,168.748 305.017,172.981 301.393 C 175.286 299.419,175.391 299.366,175.391 300.170 M225.526 300.273 C 223.148 301.458,222.528 304.933,224.137 308.057 C 226.336 312.330,231.641 310.086,231.641 304.883 C 231.641 300.816,228.773 298.655,225.526 300.273 M228.852 303.297 C 229.886 305.419,228.014 308.581,226.740 306.866 C 225.650 305.398,225.570 303.460,226.565 302.653 C 227.673 301.756,228.169 301.896,228.852 303.297 M93.881 323.017 C 94.706 323.521,96.376 324.242,97.592 324.619 L 99.805 325.304 99.833 330.132 C 99.878 337.772,101.493 344.182,104.506 348.675 C 106.676 351.911,106.732 351.721,103.688 351.436 C 89.383 350.100,84.425 341.568,87.297 323.227 C 88.144 317.822,87.990 317.973,90.369 320.208 C 91.476 321.248,93.057 322.512,93.881 323.017 M134.204 323.660 C 134.917 326.111,136.393 328.007,138.451 329.115 C 140.387 330.158,140.283 330.313,136.426 332.126 C 130.584 334.872,125.872 333.679,123.397 328.827 C 121.912 325.917,122.261 325.457,127.206 323.804 C 129.601 323.004,131.887 322.160,132.284 321.929 C 133.429 321.263,133.536 321.360,134.204 323.660 M119.716 333.203 C 119.788 343.427,121.027 346.010,127.134 348.671 C 129.894 349.873,129.876 349.837,129.160 352.930 L 128.708 354.883 125.780 355.142 C 113.808 356.203,106.605 351.173,103.735 339.748 C 102.659 335.463,102.174 330.781,102.534 328.161 L 102.794 326.273 107.940 326.448 C 110.770 326.545,114.316 326.454,115.820 326.248 C 117.324 326.041,118.804 325.896,119.110 325.924 C 119.566 325.967,119.674 327.269,119.716 333.203 M225.143 328.093 C 222.680 329.595,221.913 332.621,223.209 335.723 C 224.574 338.990,229.620 338.627,231.006 335.163 C 233.073 329.998,229.361 325.521,225.143 328.093 M228.583 330.725 C 230.309 332.287,228.335 336.300,226.454 335.052 C 225.413 334.360,225.008 332.948,225.479 331.649 C 226.080 329.990,227.352 329.611,228.583 330.725 M126.359 335.597 L 127.610 336.049 127.574 341.070 C 127.555 343.831,127.447 346.091,127.335 346.092 C 125.380 346.110,122.717 341.366,122.287 337.097 C 121.827 332.536,122.005 332.131,123.727 333.804 C 124.487 334.541,125.671 335.348,126.359 335.597 M251.310 355.783 C 251.021 363.420,251.236 362.842,249.139 361.606 C 246.312 359.939,242.394 354.724,242.662 352.985 C 242.773 352.265,250.594 348.736,251.266 349.103 C 251.426 349.190,251.445 352.196,251.310 355.783 M135.860 350.817 C 137.967 351.528,138.254 351.742,138.090 352.477 C 137.987 352.941,137.626 354.990,137.287 357.031 C 136.949 359.072,136.236 362.939,135.705 365.625 C 133.897 374.751,130.424 395.505,126.945 417.969 C 126.063 423.662,124.119 435.879,122.624 445.117 C 121.129 454.355,119.538 464.199,119.089 466.992 C 118.036 473.531,118.203 473.292,115.607 471.977 L 113.477 470.898 113.586 468.555 C 113.646 467.266,114.122 463.398,114.644 459.961 C 115.166 456.523,116.313 448.789,117.193 442.773 C 119.303 428.335,127.107 379.605,129.047 368.750 C 131.333 355.963,132.591 350.000,133.005 350.000 C 133.245 350.000,134.530 350.367,135.860 350.817 M145.575 353.147 C 150.334 354.255,150.391 354.276,150.391 354.939 C 150.391 357.087,145.494 363.372,142.083 365.601 C 138.165 368.161,138.196 368.229,139.642 360.242 C 140.176 357.294,140.712 354.312,140.832 353.613 C 141.091 352.113,141.122 352.110,145.575 353.147 M240.234 354.115 C 240.234 356.427,245.125 362.464,248.769 364.648 C 249.874 365.311,250.781 366.160,250.857 366.602 C 251.015 367.528,250.618 391.992,249.997 419.531 C 249.752 430.381,249.409 446.816,249.234 456.055 C 248.871 475.287,249.104 473.943,245.962 474.947 C 235.457 478.305,216.249 479.117,204.358 476.705 C 200.144 475.850,200.513 477.320,200.015 459.375 C 199.526 441.732,198.692 414.498,197.983 393.072 C 197.726 385.287,197.601 378.831,197.705 378.727 C 197.810 378.622,200.259 378.355,203.147 378.133 C 212.547 377.411,222.184 374.433,223.977 371.695 C 224.798 370.443,224.942 370.425,219.141 372.273 C 212.153 374.498,212.290 374.560,213.724 369.839 C 214.182 368.331,214.930 364.881,215.386 362.172 L 216.215 357.247 220.910 356.778 C 225.194 356.350,237.411 354.126,237.840 353.696 C 238.316 353.221,240.234 353.556,240.234 354.115 M159.220 355.842 C 168.460 357.242,177.040 357.888,189.192 358.097 C 198.198 358.253,201.282 358.426,201.420 358.785 C 201.791 359.754,199.187 368.892,197.271 373.340 L 196.388 375.391 193.187 375.391 C 191.239 375.391,188.850 375.089,187.083 374.619 C 183.579 373.687,183.594 373.688,183.594 374.387 C 183.594 375.669,187.797 377.533,191.727 377.995 C 194.337 378.302,194.436 378.578,193.185 382.048 C 192.027 385.257,187.869 400.633,183.208 418.945 C 181.458 425.820,179.429 433.730,178.700 436.523 C 177.970 439.316,176.308 446.436,175.005 452.344 C 172.842 462.159,170.146 473.882,169.696 475.433 C 168.433 479.785,140.877 479.049,122.508 474.173 L 120.993 473.771 121.249 471.553 C 121.389 470.334,123.073 459.580,124.991 447.656 C 126.908 435.732,128.936 422.988,129.497 419.336 C 132.232 401.528,136.628 375.508,137.685 370.876 C 137.815 370.305,138.476 369.880,139.968 369.410 C 144.829 367.877,150.440 362.440,152.439 357.324 C 152.921 356.089,153.511 355.078,153.750 355.078 C 153.988 355.078,156.450 355.422,159.220 355.842 M213.073 359.668 C 212.534 363.569,209.980 373.668,209.357 374.360 C 209.058 374.691,201.963 375.756,199.945 375.773 L 198.914 375.781 200.245 372.704 C 200.976 371.012,202.222 367.065,203.012 363.933 L 204.449 358.240 206.229 358.097 C 207.207 358.018,209.205 357.922,210.668 357.883 L 213.329 357.813 213.073 359.668 M275.777 383.519 C 275.769 388.556,274.634 391.770,271.156 396.604 C 269.890 398.364,268.730 400.200,268.580 400.684 C 268.239 401.780,267.787 401.778,265.820 400.668 C 263.079 399.120,263.681 395.560,266.920 394.172 C 270.121 392.799,272.281 389.626,274.062 383.678 C 275.324 379.462,275.783 379.420,275.777 383.519 M261.857 392.737 L 262.972 393.649 262.052 396.037 C 261.035 398.681,260.892 398.782,259.766 397.656 C 258.819 396.710,258.736 394.583,259.580 392.949 C 260.292 391.574,260.420 391.562,261.857 392.737 M112.856 473.811 C 125.599 480.206,158.971 483.459,169.450 479.329 C 172.669 478.060,172.762 478.229,172.194 484.284 C 171.222 494.647,168.415 497.238,156.643 498.638 C 141.562 500.432,119.003 497.598,110.765 492.875 C 107.021 490.728,105.750 483.452,107.650 475.053 C 108.516 471.228,107.969 471.358,112.856 473.811 M253.320 482.430 C 253.320 492.129,253.796 491.236,247.490 493.382 C 242.268 495.160,233.808 496.517,224.414 497.086 C 217.113 497.527,205.201 495.532,200.781 493.126 C 197.644 491.419,197.126 489.919,197.341 483.180 C 197.543 476.851,197.469 476.999,199.907 478.048 C 211.798 483.163,245.248 481.160,251.129 474.980 C 253.202 472.801,253.320 473.203,253.320 482.430 M254.824 495.465 L 255.834 496.789 253.491 497.665 C 249.690 499.087,246.889 501.007,243.353 504.614 C 237.772 510.307,233.766 511.529,236.120 506.820 C 238.359 502.342,243.997 497.715,249.999 495.431 C 254.063 493.884,253.615 493.881,254.824 495.465 M115.375 497.434 C 118.198 498.386,122.827 499.645,125.662 500.231 L 130.815 501.296 130.231 502.426 C 129.376 504.080,129.139 504.084,122.884 502.554 C 119.736 501.783,115.220 500.822,112.848 500.417 C 107.707 499.540,108.000 499.759,108.961 497.516 C 109.895 495.335,109.179 495.345,115.375 497.434 M202.331 496.871 C 211.353 499.968,224.592 500.800,235.156 498.933 C 237.627 498.496,239.687 498.171,239.733 498.210 C 239.780 498.249,238.760 499.393,237.467 500.751 C 230.555 508.015,231.168 513.685,238.672 511.902 C 239.589 511.684,239.652 511.769,239.711 513.314 C 239.819 516.192,241.147 517.578,243.794 517.578 C 245.589 517.578,246.304 517.045,251.367 511.929 C 257.299 505.936,261.083 503.906,266.326 503.906 C 268.596 503.906,268.310 504.510,265.499 505.652 C 255.341 509.781,248.730 518.414,246.292 530.735 C 246.249 530.949,231.386 527.936,226.563 526.735 C 214.618 523.761,198.842 517.799,196.981 515.558 C 196.359 514.808,198.005 495.703,198.692 495.703 C 198.823 495.703,200.461 496.229,202.331 496.871 M263.270 499.994 C 265.546 501.155,265.455 501.398,262.550 501.917 C 257.266 502.861,252.684 505.765,248.247 510.982 C 244.429 515.471,242.366 516.085,242.462 512.704 C 242.543 509.841,247.948 502.761,250.996 501.526 C 257.405 498.930,260.441 498.551,263.270 499.994 M164.991 510.449 C 164.700 523.146,165.314 521.606,158.803 525.970 C 153.546 529.493,146.003 533.440,141.016 535.277 C 137.156 536.699,129.371 538.902,129.162 538.632 C 129.096 538.546,128.422 537.158,127.663 535.547 C 122.773 525.157,109.846 516.847,96.216 515.331 L 93.555 515.035 94.981 514.353 C 99.621 512.136,111.593 515.180,123.593 521.628 C 128.247 524.129,130.987 521.251,128.533 516.440 C 128.085 515.562,127.766 514.846,127.824 514.848 C 127.882 514.850,128.793 515.114,129.847 515.434 C 137.869 517.867,140.145 512.094,133.205 506.913 C 131.283 505.478,131.253 505.424,131.792 504.383 C 133.107 501.839,132.852 501.889,144.994 501.768 C 155.123 501.668,156.417 501.577,160.352 500.689 C 162.715 500.156,164.782 499.695,164.944 499.665 C 165.107 499.634,165.128 504.487,164.991 510.449 M115.625 503.680 C 126.941 506.023,129.489 507.011,132.990 510.411 C 135.122 512.482,134.905 513.452,132.383 513.118 C 129.759 512.770,122.481 510.548,117.695 508.635 C 113.649 507.017,109.655 506.010,105.474 505.551 C 102.637 505.240,102.078 504.563,103.492 503.149 C 104.685 501.955,107.996 502.100,115.625 503.680 M277.549 508.225 C 281.362 510.503,288.281 520.347,288.281 523.494 C 288.281 529.019,270.959 532.826,252.397 531.382 L 249.129 531.127 249.359 529.454 C 251.315 515.179,268.070 502.561,277.549 508.225 M109.375 508.856 C 117.372 510.523,124.454 514.212,126.189 517.612 C 127.646 520.467,127.214 520.554,123.091 518.236 C 116.253 514.391,107.392 511.548,100.586 511.017 C 96.884 510.728,96.525 510.453,98.206 509.197 C 100.109 507.776,103.673 507.668,109.375 508.856 M101.602 519.151 C 112.038 521.815,123.773 530.887,125.764 537.829 C 126.193 539.325,126.323 539.282,119.681 539.865 C 103.310 541.301,78.233 535.229,79.488 530.132 C 81.756 520.924,90.853 516.406,101.602 519.151 M206.445 523.163 C 236.716 535.131,270.171 538.019,286.024 530.032 C 288.749 528.660,288.674 528.661,288.663 529.980 C 288.556 543.430,255.279 545.663,217.346 534.766 C 199.407 529.613,194.531 526.743,194.531 521.340 C 194.531 517.808,194.574 517.785,197.986 519.499 C 199.631 520.325,203.437 521.974,206.445 523.163 M165.099 526.759 C 163.840 535.949,143.634 547.126,124.191 549.389 C 104.618 551.666,82.992 547.041,79.269 539.781 C 77.514 536.360,77.498 533.490,79.240 534.718 C 98.270 548.137,138.343 544.628,161.328 527.531 C 165.329 524.555,165.404 524.539,165.099 526.759 " stroke="none" fill="#f4f3f3" fill-rule="evenodd"></path><path id="path2" d="M194.434 1.849 C 195.347 1.931,196.841 1.931,197.754 1.849 C 198.667 1.766,197.920 1.699,196.094 1.699 C 194.268 1.699,193.521 1.766,194.434 1.849 M108.963 40.137 L 107.617 41.602 109.082 40.255 C 109.888 39.515,110.547 38.856,110.547 38.791 C 110.547 38.492,110.216 38.773,108.963 40.137 M226.151 74.512 L 224.805 75.977 226.270 74.630 C 227.633 73.377,227.914 73.047,227.616 73.047 C 227.550 73.047,226.891 73.706,226.151 74.512 M294.434 87.385 C 294.917 87.478,295.708 87.478,296.191 87.385 C 296.675 87.292,296.279 87.216,295.313 87.216 C 294.346 87.216,293.950 87.292,294.434 87.385 M287.200 96.094 C 287.200 96.846,287.280 97.153,287.379 96.777 C 287.477 96.401,287.477 95.786,287.379 95.410 C 287.280 95.034,287.200 95.342,287.200 96.094 M87.208 143.555 C 87.212 144.414,87.292 144.720,87.386 144.234 C 87.479 143.748,87.476 143.045,87.378 142.671 C 87.280 142.298,87.204 142.695,87.208 143.555 M291.497 151.953 C 291.497 152.705,291.577 153.013,291.676 152.637 C 291.774 152.261,291.774 151.646,291.676 151.270 C 291.577 150.894,291.497 151.201,291.497 151.953 M125.103 196.374 C 125.697 196.464,126.576 196.461,127.056 196.369 C 127.537 196.276,127.051 196.203,125.977 196.205 C 124.902 196.208,124.509 196.284,125.103 196.374 M208.496 206.135 C 208.979 206.228,209.771 206.228,210.254 206.135 C 210.737 206.042,210.342 205.966,209.375 205.966 C 208.408 205.966,208.013 206.042,208.496 206.135 M257.924 267.383 C 257.927 268.457,258.003 268.850,258.093 268.256 C 258.183 267.663,258.180 266.784,258.087 266.303 C 257.995 265.823,257.921 266.309,257.924 267.383 M257.919 271.094 C 257.919 272.061,257.995 272.456,258.088 271.973 C 258.181 271.489,258.181 270.698,258.088 270.215 C 257.995 269.731,257.919 270.127,257.919 271.094 M122.754 286.217 C 123.345 286.307,124.312 286.307,124.902 286.217 C 125.493 286.128,125.010 286.055,123.828 286.055 C 122.646 286.055,122.163 286.128,122.754 286.217 M128.237 286.227 C 129.480 286.304,131.414 286.304,132.534 286.225 C 133.654 286.146,132.637 286.083,130.273 286.084 C 127.910 286.085,126.994 286.149,128.237 286.227 M217.669 289.063 C 217.669 289.814,217.749 290.122,217.847 289.746 C 217.946 289.370,217.946 288.755,217.847 288.379 C 217.749 288.003,217.669 288.311,217.669 289.063 M214.934 321.875 C 214.934 322.627,215.015 322.935,215.113 322.559 C 215.211 322.183,215.211 321.567,215.113 321.191 C 215.015 320.815,214.934 321.123,214.934 321.875 M217.677 324.805 C 217.681 325.664,217.761 325.970,217.854 325.484 C 217.948 324.998,217.944 324.295,217.847 323.921 C 217.749 323.548,217.672 323.945,217.677 324.805 M129.794 341.406 C 129.794 342.373,129.870 342.769,129.963 342.285 C 130.056 341.802,130.056 341.011,129.963 340.527 C 129.870 340.044,129.794 340.439,129.794 341.406 M253.997 348.438 C 253.997 349.189,254.077 349.497,254.176 349.121 C 254.274 348.745,254.274 348.130,254.176 347.754 C 254.077 347.378,253.997 347.686,253.997 348.438 M253.622 366.016 C 253.622 366.982,253.698 367.378,253.791 366.895 C 253.884 366.411,253.884 365.620,253.791 365.137 C 253.698 364.653,253.622 365.049,253.622 366.016 M250.481 380.859 C 250.481 381.611,250.562 381.919,250.660 381.543 C 250.758 381.167,250.758 380.552,250.660 380.176 C 250.562 379.800,250.481 380.107,250.481 380.859 M253.216 394.141 C 253.216 394.893,253.296 395.200,253.394 394.824 C 253.493 394.448,253.493 393.833,253.394 393.457 C 253.296 393.081,253.216 393.389,253.216 394.141 M250.128 404.492 C 250.130 405.996,250.201 406.563,250.285 405.753 C 250.370 404.943,250.368 403.712,250.282 403.019 C 250.196 402.325,250.126 402.988,250.128 404.492 M249.325 440.625 C 249.325 441.592,249.401 441.987,249.494 441.504 C 249.588 441.021,249.588 440.229,249.494 439.746 C 249.401 439.263,249.325 439.658,249.325 440.625 M252.044 448.438 C 252.044 449.189,252.124 449.497,252.222 449.121 C 252.321 448.745,252.321 448.130,252.222 447.754 C 252.124 447.378,252.044 447.686,252.044 448.438 M196.974 459.570 C 196.978 460.430,197.058 460.735,197.151 460.249 C 197.245 459.763,197.241 459.060,197.143 458.687 C 197.046 458.313,196.969 458.711,196.974 459.570 M248.927 460.352 C 248.931 461.211,249.011 461.517,249.104 461.031 C 249.198 460.545,249.194 459.842,249.097 459.468 C 248.999 459.095,248.922 459.492,248.927 460.352 M167.669 509.766 C 167.669 510.518,167.749 510.825,167.847 510.449 C 167.946 510.073,167.946 509.458,167.847 509.082 C 167.749 508.706,167.669 509.014,167.669 509.766 M110.059 540.126 C 110.757 540.213,111.899 540.213,112.598 540.126 C 113.296 540.040,112.725 539.969,111.328 539.969 C 109.932 539.969,109.360 540.040,110.059 540.126 M114.751 540.120 C 115.237 540.213,115.940 540.210,116.313 540.112 C 116.687 540.014,116.289 539.938,115.430 539.942 C 114.570 539.947,114.265 540.027,114.751 540.120 " stroke="none" fill="#727272" fill-rule="evenodd"></path><path id="path3" d="M227.905 77.441 L 226.758 78.711 228.027 77.564 C 228.726 76.933,229.297 76.361,229.297 76.294 C 229.297 75.992,228.975 76.258,227.905 77.441 M290.737 89.648 C 290.740 90.723,290.816 91.116,290.905 90.522 C 290.995 89.928,290.993 89.049,290.900 88.569 C 290.807 88.088,290.734 88.574,290.737 89.648 M150.098 90.894 C 150.474 90.993,151.089 90.993,151.465 90.894 C 151.841 90.796,151.533 90.716,150.781 90.716 C 150.029 90.716,149.722 90.796,150.098 90.894 M155.753 90.907 C 156.446 90.993,157.677 90.995,158.487 90.910 C 159.298 90.826,158.730 90.755,157.227 90.753 C 155.723 90.751,155.060 90.821,155.753 90.907 M88.012 93.945 C 88.014 95.234,88.087 95.715,88.174 95.013 C 88.261 94.310,88.259 93.256,88.170 92.669 C 88.081 92.082,88.009 92.656,88.012 93.945 M286.809 108.594 C 286.809 109.346,286.890 109.653,286.988 109.277 C 287.086 108.901,287.086 108.286,286.988 107.910 C 286.890 107.534,286.809 107.842,286.809 108.594 M283.736 115.039 C 283.737 117.188,283.803 118.017,283.882 116.881 C 283.961 115.746,283.961 113.988,283.880 112.975 C 283.800 111.962,283.735 112.891,283.736 115.039 M229.980 151.448 C 230.464 151.541,231.255 151.541,231.738 151.448 C 232.222 151.354,231.826 151.278,230.859 151.278 C 229.893 151.278,229.497 151.354,229.980 151.448 M224.719 172.944 C 225.746 173.025,227.328 173.024,228.234 172.942 C 229.141 172.860,228.301 172.794,226.367 172.795 C 224.434 172.796,223.692 172.863,224.719 172.944 M144.515 182.520 C 145.473 183.540,146.308 184.375,146.370 184.375 C 146.664 184.375,146.354 184.024,144.629 182.406 L 142.773 180.664 144.515 182.520 M143.359 185.742 C 144.088 186.494,144.772 187.109,144.880 187.109 C 144.987 187.109,144.479 186.494,143.750 185.742 C 143.021 184.990,142.337 184.375,142.230 184.375 C 142.122 184.375,142.631 184.990,143.359 185.742 M212.207 206.144 C 213.013 206.228,214.331 206.228,215.137 206.144 C 215.942 206.060,215.283 205.991,213.672 205.991 C 212.061 205.991,211.401 206.060,212.207 206.144 M232.227 211.328 C 233.066 212.188,233.840 212.891,233.948 212.891 C 234.055 212.891,233.456 212.188,232.617 211.328 C 231.778 210.469,231.004 209.766,230.896 209.766 C 230.789 209.766,231.387 210.469,232.227 211.328 M181.152 256.135 C 181.636 256.228,182.427 256.228,182.910 256.135 C 183.394 256.042,182.998 255.966,182.031 255.966 C 181.064 255.966,180.669 256.042,181.152 256.135 M140.377 265.039 C 140.378 267.188,140.444 268.017,140.523 266.881 C 140.602 265.746,140.601 263.988,140.521 262.975 C 140.441 261.962,140.376 262.891,140.377 265.039 M78.997 269.531 C 78.997 270.283,79.077 270.591,79.176 270.215 C 79.274 269.839,79.274 269.224,79.176 268.848 C 79.077 268.472,78.997 268.779,78.997 269.531 M100.688 273.323 C 101.174 273.417,101.877 273.413,102.251 273.315 C 102.624 273.217,102.227 273.141,101.367 273.145 C 100.508 273.150,100.202 273.230,100.688 273.323 M214.942 319.336 C 214.947 320.195,215.027 320.501,215.120 320.015 C 215.213 319.529,215.210 318.826,215.112 318.452 C 215.014 318.079,214.938 318.477,214.942 319.336 M108.306 326.843 C 108.900 326.933,109.779 326.930,110.259 326.837 C 110.740 326.745,110.254 326.671,109.180 326.674 C 108.105 326.677,107.712 326.753,108.306 326.843 M119.262 333.789 C 119.264 335.078,119.337 335.558,119.424 334.856 C 119.511 334.154,119.509 333.100,119.420 332.513 C 119.331 331.926,119.259 332.500,119.262 333.789 M288.763 348.047 C 288.763 348.799,288.843 349.106,288.941 348.730 C 289.039 348.354,289.039 347.739,288.941 347.363 C 288.843 346.987,288.763 347.295,288.763 348.047 M253.641 369.922 C 253.641 371.318,253.712 371.890,253.798 371.191 C 253.885 370.493,253.885 369.351,253.798 368.652 C 253.712 367.954,253.641 368.525,253.641 369.922 M292.703 373.438 C 292.703 374.834,292.774 375.405,292.861 374.707 C 292.947 374.009,292.947 372.866,292.861 372.168 C 292.774 371.470,292.703 372.041,292.703 373.438 M253.231 396.875 C 253.231 397.842,253.308 398.237,253.401 397.754 C 253.494 397.271,253.494 396.479,253.401 395.996 C 253.308 395.513,253.231 395.908,253.231 396.875 M250.099 400.586 C 250.103 401.445,250.183 401.751,250.276 401.265 C 250.370 400.779,250.366 400.076,250.268 399.702 C 250.171 399.329,250.094 399.727,250.099 400.586 M198.528 408.203 C 198.528 408.955,198.609 409.263,198.707 408.887 C 198.805 408.511,198.805 407.896,198.707 407.520 C 198.609 407.144,198.528 407.451,198.528 408.203 M252.846 416.602 C 252.849 417.676,252.925 418.069,253.015 417.475 C 253.104 416.881,253.102 416.002,253.009 415.522 C 252.917 415.042,252.843 415.527,252.846 416.602 M196.192 431.055 C 196.197 431.914,196.277 432.220,196.370 431.734 C 196.463 431.248,196.460 430.545,196.362 430.171 C 196.264 429.798,196.188 430.195,196.192 431.055 M199.309 431.250 C 199.309 432.002,199.390 432.310,199.488 431.934 C 199.586 431.558,199.586 430.942,199.488 430.566 C 199.390 430.190,199.309 430.498,199.309 431.250 M196.583 444.336 C 196.587 445.195,196.667 445.501,196.761 445.015 C 196.854 444.529,196.851 443.826,196.753 443.452 C 196.655 443.079,196.579 443.477,196.583 444.336 M199.708 447.461 C 199.712 448.320,199.792 448.626,199.886 448.140 C 199.979 447.654,199.976 446.951,199.878 446.577 C 199.780 446.204,199.704 446.602,199.708 447.461 M248.959 456.250 C 248.959 457.861,249.028 458.521,249.113 457.715 C 249.197 456.909,249.197 455.591,249.113 454.785 C 249.028 453.979,248.959 454.639,248.959 456.250 M197.364 483.008 C 197.368 483.867,197.448 484.173,197.542 483.687 C 197.635 483.201,197.632 482.498,197.534 482.124 C 197.436 481.751,197.360 482.148,197.364 483.008 M140.332 499.097 C 140.708 499.196,141.323 499.196,141.699 499.097 C 142.075 498.999,141.768 498.919,141.016 498.919 C 140.264 498.919,139.956 498.999,140.332 499.097 M149.316 499.097 C 149.692 499.196,150.308 499.196,150.684 499.097 C 151.060 498.999,150.752 498.919,150.000 498.919 C 149.248 498.919,148.940 498.999,149.316 499.097 M220.222 500.283 C 220.924 500.370,221.979 500.368,222.566 500.279 C 223.153 500.190,222.578 500.119,221.289 500.121 C 220.000 500.123,219.520 500.196,220.222 500.283 M143.457 502.240 C 144.478 502.321,146.147 502.321,147.168 502.240 C 148.188 502.160,147.354 502.094,145.313 502.094 C 143.271 502.094,142.437 502.160,143.457 502.240 M254.666 512.793 L 253.320 514.258 254.785 512.912 C 256.149 511.659,256.430 511.328,256.131 511.328 C 256.066 511.328,255.407 511.987,254.666 512.793 M164.544 517.969 C 164.544 518.721,164.624 519.028,164.722 518.652 C 164.821 518.276,164.821 517.661,164.722 517.285 C 164.624 516.909,164.544 517.217,164.544 517.969 M291.497 528.516 C 291.497 529.268,291.577 529.575,291.676 529.199 C 291.774 528.823,291.774 528.208,291.676 527.832 C 291.577 527.456,291.497 527.764,291.497 528.516 M257.715 541.682 C 258.198 541.775,258.989 541.775,259.473 541.682 C 259.956 541.589,259.561 541.513,258.594 541.513 C 257.627 541.513,257.231 541.589,257.715 541.682 " stroke="none" fill="#4b4b4b" fill-rule="evenodd"></path><path id="path4" d="M285.831 42.469 C 286.525 42.556,287.755 42.557,288.566 42.473 C 289.376 42.388,288.809 42.317,287.305 42.316 C 285.801 42.314,285.138 42.383,285.831 42.469 M290.923 42.464 C 291.408 42.557,292.112 42.554,292.485 42.456 C 292.858 42.358,292.461 42.282,291.602 42.286 C 290.742 42.290,290.437 42.370,290.923 42.464 M124.708 60.742 C 124.712 61.602,124.792 61.907,124.886 61.421 C 124.979 60.935,124.976 60.232,124.878 59.859 C 124.780 59.485,124.704 59.883,124.708 60.742 M127.478 63.477 C 127.479 65.195,127.548 65.850,127.630 64.931 C 127.713 64.012,127.712 62.606,127.628 61.806 C 127.544 61.006,127.476 61.758,127.478 63.477 M124.746 67.188 C 124.746 69.014,124.813 69.761,124.895 68.848 C 124.978 67.935,124.978 66.440,124.895 65.527 C 124.813 64.614,124.746 65.361,124.746 67.188 M284.536 87.891 C 284.536 91.650,284.594 93.188,284.666 91.309 C 284.737 89.429,284.737 86.353,284.666 84.473 C 284.594 82.593,284.536 84.131,284.536 87.891 M287.230 92.773 C 287.233 94.063,287.306 94.543,287.392 93.841 C 287.479 93.139,287.478 92.084,287.388 91.497 C 287.299 90.910,287.228 91.484,287.230 92.773 M87.981 98.828 C 87.981 99.580,88.062 99.888,88.160 99.512 C 88.258 99.136,88.258 98.521,88.160 98.145 C 88.062 97.769,87.981 98.076,87.981 98.828 M284.083 105.273 C 284.087 106.133,284.167 106.438,284.261 105.952 C 284.354 105.467,284.351 104.763,284.253 104.390 C 284.155 104.017,284.079 104.414,284.083 105.273 M286.809 105.469 C 286.809 106.221,286.890 106.528,286.988 106.152 C 287.086 105.776,287.086 105.161,286.988 104.785 C 286.890 104.409,286.809 104.717,286.809 105.469 M89.950 143.359 C 89.950 144.326,90.026 144.722,90.119 144.238 C 90.213 143.755,90.213 142.964,90.119 142.480 C 90.026 141.997,89.950 142.393,89.950 143.359 M288.793 152.148 C 288.795 153.438,288.868 153.918,288.955 153.216 C 289.042 152.514,289.040 151.459,288.951 150.872 C 288.862 150.285,288.791 150.859,288.793 152.148 M258.301 153.004 C 258.677 153.102,259.292 153.102,259.668 153.004 C 260.044 152.905,259.736 152.825,258.984 152.825 C 258.232 152.825,257.925 152.905,258.301 153.004 M115.532 176.058 C 116.018 176.151,116.721 176.147,117.094 176.050 C 117.468 175.952,117.070 175.875,116.211 175.880 C 115.352 175.884,115.046 175.964,115.532 176.058 M277.713 186.230 L 276.367 187.695 277.832 186.349 C 279.195 185.096,279.476 184.766,279.178 184.766 C 279.113 184.766,278.454 185.425,277.713 186.230 M205.957 206.129 C 206.333 206.227,206.948 206.227,207.324 206.129 C 207.700 206.030,207.393 205.950,206.641 205.950 C 205.889 205.950,205.581 206.030,205.957 206.129 M218.457 206.129 C 218.833 206.227,219.448 206.227,219.824 206.129 C 220.200 206.030,219.893 205.950,219.141 205.950 C 218.389 205.950,218.081 206.030,218.457 206.129 M213.391 209.272 C 214.418 209.353,216.000 209.352,216.906 209.270 C 217.813 209.188,216.973 209.122,215.039 209.123 C 213.105 209.124,212.364 209.191,213.391 209.272 M145.215 216.291 C 145.698 216.384,146.489 216.384,146.973 216.291 C 147.456 216.198,147.061 216.122,146.094 216.122 C 145.127 216.122,144.731 216.198,145.215 216.291 M90.405 223.145 L 89.258 224.414 90.527 223.267 C 91.711 222.197,91.976 221.875,91.675 221.875 C 91.607 221.875,91.036 222.446,90.405 223.145 M110.254 222.926 C 110.630 223.024,111.245 223.024,111.621 222.926 C 111.997 222.827,111.689 222.747,110.938 222.747 C 110.186 222.747,109.878 222.827,110.254 222.926 M252.344 228.638 C 252.344 228.705,252.915 229.276,253.613 229.907 L 254.883 231.055 253.736 229.785 C 252.666 228.602,252.344 228.336,252.344 228.638 M141.016 231.836 C 141.744 232.588,142.429 233.203,142.536 233.203 C 142.643 233.203,142.135 232.588,141.406 231.836 C 140.677 231.084,139.993 230.469,139.886 230.469 C 139.778 230.469,140.287 231.084,141.016 231.836 M185.135 236.621 L 183.789 238.086 185.254 236.740 C 186.617 235.487,186.898 235.156,186.600 235.156 C 186.535 235.156,185.876 235.815,185.135 236.621 M214.161 240.820 C 214.165 241.680,214.245 241.985,214.339 241.499 C 214.432 241.013,214.429 240.310,214.331 239.937 C 214.233 239.563,214.157 239.961,214.161 240.820 M143.080 266.211 C 143.083 267.285,143.159 267.678,143.249 267.084 C 143.339 266.491,143.336 265.612,143.244 265.131 C 143.151 264.651,143.078 265.137,143.080 266.211 M184.082 267.457 C 184.458 267.555,185.073 267.555,185.449 267.457 C 185.825 267.359,185.518 267.278,184.766 267.278 C 184.014 267.278,183.706 267.359,184.082 267.457 M101.475 270.599 C 102.394 270.682,103.800 270.680,104.600 270.596 C 105.400 270.513,104.648 270.445,102.930 270.446 C 101.211 270.448,100.556 270.517,101.475 270.599 M257.911 274.023 C 257.915 274.883,257.995 275.188,258.089 274.702 C 258.182 274.217,258.179 273.513,258.081 273.140 C 257.983 272.767,257.907 273.164,257.911 274.023 M122.559 283.088 C 123.042 283.181,123.833 283.181,124.316 283.088 C 124.800 282.995,124.404 282.919,123.438 282.919 C 122.471 282.919,122.075 282.995,122.559 283.088 M119.434 286.213 C 119.917 286.306,120.708 286.306,121.191 286.213 C 121.675 286.120,121.279 286.044,120.313 286.044 C 119.346 286.044,118.950 286.120,119.434 286.213 M217.715 293.359 C 217.715 295.186,217.782 295.933,217.864 295.020 C 217.946 294.106,217.946 292.612,217.864 291.699 C 217.782 290.786,217.715 291.533,217.715 293.359 M215.379 304.297 C 215.379 306.553,215.443 307.476,215.522 306.348 C 215.601 305.220,215.601 303.374,215.522 302.246 C 215.443 301.118,215.379 302.041,215.379 304.297 M217.690 321.680 C 217.693 322.754,217.769 323.147,217.858 322.553 C 217.948 321.959,217.946 321.081,217.853 320.600 C 217.760 320.120,217.687 320.605,217.690 321.680 M214.942 324.414 C 214.947 325.273,215.027 325.579,215.120 325.093 C 215.213 324.607,215.210 323.904,215.112 323.531 C 215.014 323.157,214.938 323.555,214.942 324.414 M119.622 327.344 C 119.622 328.096,119.702 328.403,119.801 328.027 C 119.899 327.651,119.899 327.036,119.801 326.660 C 119.702 326.284,119.622 326.592,119.622 327.344 M102.469 330.469 C 102.469 331.865,102.540 332.437,102.626 331.738 C 102.713 331.040,102.713 329.897,102.626 329.199 C 102.540 328.501,102.469 329.072,102.469 330.469 M285.645 339.648 C 285.650 340.508,285.730 340.813,285.823 340.327 C 285.917 339.842,285.913 339.138,285.815 338.765 C 285.717 338.392,285.641 338.789,285.645 339.648 M251.166 351.288 L 251.356 353.711 251.482 351.604 C 251.551 350.446,251.465 349.355,251.292 349.181 C 251.118 349.007,251.062 349.955,251.166 351.288 M105.957 354.566 C 106.333 354.664,106.948 354.664,107.324 354.566 C 107.700 354.468,107.393 354.388,106.641 354.388 C 105.889 354.388,105.581 354.468,105.957 354.566 M121.973 355.347 C 122.349 355.446,122.964 355.446,123.340 355.347 C 123.716 355.249,123.408 355.169,122.656 355.169 C 121.904 355.169,121.597 355.249,121.973 355.347 M121.782 358.089 C 122.268 358.182,122.971 358.179,123.344 358.081 C 123.718 357.983,123.320 357.907,122.461 357.911 C 121.602 357.915,121.296 357.995,121.782 358.089 M191.327 358.494 C 193.110 358.567,195.922 358.566,197.577 358.493 C 199.232 358.420,197.773 358.361,194.336 358.361 C 190.898 358.362,189.544 358.421,191.327 358.494 M243.750 360.669 C 243.750 360.736,244.321 361.308,245.020 361.939 L 246.289 363.086 245.142 361.816 C 244.072 360.633,243.750 360.367,243.750 360.669 M253.627 362.695 C 253.630 363.770,253.706 364.163,253.796 363.569 C 253.886 362.975,253.883 362.096,253.791 361.616 C 253.698 361.135,253.624 361.621,253.627 362.695 M250.538 386.328 C 250.538 388.799,250.602 389.810,250.679 388.574 C 250.757 387.339,250.757 385.317,250.679 384.082 C 250.602 382.847,250.538 383.857,250.538 386.328 M253.264 387.305 C 253.262 389.238,253.329 390.079,253.410 389.172 C 253.492 388.265,253.493 386.683,253.413 385.656 C 253.332 384.629,253.265 385.371,253.264 387.305 M198.145 399.414 C 198.150 400.273,198.230 400.579,198.323 400.093 C 198.417 399.607,198.413 398.904,198.315 398.531 C 198.217 398.157,198.141 398.555,198.145 399.414 M195.411 400.977 C 195.415 401.836,195.495 402.142,195.589 401.656 C 195.682 401.170,195.679 400.467,195.581 400.093 C 195.483 399.720,195.407 400.117,195.411 400.977 M250.121 409.180 C 250.123 410.469,250.196 410.949,250.283 410.247 C 250.370 409.545,250.368 408.490,250.279 407.903 C 250.190 407.316,250.119 407.891,250.121 409.180 M198.536 411.133 C 198.540 411.992,198.620 412.298,198.714 411.812 C 198.807 411.326,198.804 410.623,198.706 410.249 C 198.608 409.876,198.532 410.273,198.536 411.133 M252.841 411.719 C 252.841 412.686,252.917 413.081,253.010 412.598 C 253.103 412.114,253.103 411.323,253.010 410.840 C 252.917 410.356,252.841 410.752,252.841 411.719 M195.824 412.695 C 195.826 413.984,195.899 414.465,195.986 413.763 C 196.073 413.060,196.071 412.006,195.982 411.419 C 195.893 410.832,195.822 411.406,195.824 412.695 M198.927 423.633 C 198.931 424.492,199.011 424.798,199.104 424.312 C 199.198 423.826,199.194 423.123,199.097 422.749 C 198.999 422.376,198.922 422.773,198.927 423.633 M196.200 427.344 C 196.200 428.311,196.276 428.706,196.369 428.223 C 196.463 427.739,196.463 426.948,196.369 426.465 C 196.276 425.981,196.200 426.377,196.200 427.344 M249.721 427.930 C 249.724 429.004,249.800 429.397,249.890 428.803 C 249.979 428.209,249.977 427.331,249.884 426.850 C 249.792 426.370,249.718 426.855,249.721 427.930 M252.480 429.297 C 252.480 431.123,252.548 431.870,252.630 430.957 C 252.712 430.044,252.712 428.550,252.630 427.637 C 252.548 426.724,252.480 427.471,252.480 429.297 M199.336 435.547 C 199.336 436.729,199.409 437.212,199.499 436.621 C 199.588 436.030,199.588 435.063,199.499 434.473 C 199.409 433.882,199.336 434.365,199.336 435.547 M249.325 443.750 C 249.325 444.717,249.401 445.112,249.494 444.629 C 249.588 444.146,249.588 443.354,249.494 442.871 C 249.401 442.388,249.325 442.783,249.325 443.750 M252.060 445.703 C 252.060 446.670,252.136 447.065,252.229 446.582 C 252.322 446.099,252.322 445.308,252.229 444.824 C 252.136 444.341,252.060 444.736,252.060 445.703 M199.700 451.563 C 199.700 452.314,199.780 452.622,199.879 452.246 C 199.977 451.870,199.977 451.255,199.879 450.879 C 199.780 450.503,199.700 450.811,199.700 451.563 M197.003 455.664 C 197.005 457.168,197.076 457.735,197.160 456.925 C 197.245 456.114,197.243 454.884,197.157 454.191 C 197.071 453.497,197.001 454.160,197.003 455.664 M248.971 465.430 C 248.972 467.578,249.037 468.407,249.117 467.272 C 249.196 466.137,249.195 464.379,249.115 463.366 C 249.035 462.353,248.970 463.281,248.971 465.430 M251.696 466.211 C 251.698 467.930,251.767 468.584,251.849 467.665 C 251.932 466.747,251.930 465.340,251.846 464.540 C 251.763 463.740,251.695 464.492,251.696 466.211 M200.091 465.234 C 200.091 465.986,200.171 466.294,200.269 465.918 C 200.368 465.542,200.368 464.927,200.269 464.551 C 200.171 464.175,200.091 464.482,200.091 465.234 M256.341 478.125 C 256.341 478.877,256.421 479.185,256.519 478.809 C 256.618 478.433,256.618 477.817,256.519 477.441 C 256.421 477.065,256.341 477.373,256.341 478.125 M153.819 478.412 C 154.738 478.494,156.144 478.493,156.944 478.409 C 157.744 478.325,156.992 478.257,155.273 478.259 C 153.555 478.260,152.900 478.329,153.819 478.412 M194.648 480.859 C 194.648 482.041,194.722 482.524,194.811 481.934 C 194.901 481.343,194.901 480.376,194.811 479.785 C 194.722 479.194,194.648 479.678,194.648 480.859 M224.707 481.129 C 225.083 481.227,225.698 481.227,226.074 481.129 C 226.450 481.030,226.143 480.950,225.391 480.950 C 224.639 480.950,224.331 481.030,224.707 481.129 M104.018 483.398 C 104.021 484.473,104.097 484.866,104.187 484.272 C 104.276 483.678,104.274 482.799,104.181 482.319 C 104.089 481.838,104.015 482.324,104.018 483.398 M222.559 497.151 C 223.042 497.244,223.833 497.244,224.316 497.151 C 224.800 497.058,224.404 496.981,223.438 496.981 C 222.471 496.981,222.075 497.058,222.559 497.151 M247.635 504.199 L 246.289 505.664 247.754 504.318 C 249.117 503.065,249.398 502.734,249.100 502.734 C 249.035 502.734,248.376 503.394,247.635 504.199 M164.942 505.664 C 164.947 506.523,165.027 506.829,165.120 506.343 C 165.213 505.857,165.210 505.154,165.112 504.781 C 165.014 504.407,164.938 504.805,164.942 505.664 M167.690 506.836 C 167.693 507.910,167.769 508.303,167.858 507.709 C 167.948 507.116,167.946 506.237,167.853 505.756 C 167.760 505.276,167.687 505.762,167.690 506.836 M94.434 518.244 C 94.917 518.338,95.708 518.338,96.191 518.244 C 96.675 518.151,96.279 518.075,95.313 518.075 C 94.346 518.075,93.950 518.151,94.434 518.244 M264.166 534.655 C 264.759 534.745,265.638 534.743,266.119 534.650 C 266.599 534.557,266.113 534.484,265.039 534.487 C 263.965 534.490,263.572 534.566,264.166 534.655 M254.395 541.676 C 254.771 541.774,255.386 541.774,255.762 541.676 C 256.138 541.577,255.830 541.497,255.078 541.497 C 254.326 541.497,254.019 541.577,254.395 541.676 M112.012 543.251 C 112.710 543.338,113.853 543.338,114.551 543.251 C 115.249 543.165,114.678 543.094,113.281 543.094 C 111.885 543.094,111.313 543.165,112.012 543.251 M110.454 553.011 C 110.940 553.104,111.643 553.101,112.016 553.003 C 112.390 552.905,111.992 552.829,111.133 552.833 C 110.273 552.837,109.968 552.917,110.454 553.011 M116.504 553.004 C 116.880 553.102,117.495 553.102,117.871 553.004 C 118.247 552.905,117.939 552.825,117.188 552.825 C 116.436 552.825,116.128 552.905,116.504 553.004 " stroke="none" fill="#948c8f" fill-rule="evenodd"></path></g></svg>